<svg width="26" height="26" viewBox="0 0 26 26" fill="none" xmlns="http://www.w3.org/2000/svg">
<path d="M18.828 11.689C17.2576 14.7597 14.7597 17.2576 11.689 18.828L9.306 16.45C9.16475 16.309 8.98709 16.21 8.79285 16.1641C8.59861 16.1182 8.39544 16.1272 8.206 16.19C6.95798 16.5999 5.6526 16.8082 4.339 16.807C4.05174 16.8065 3.77596 16.9197 3.5719 17.1218C3.36784 17.324 3.25211 17.5988 3.25 17.886V21.667C3.25105 21.9539 3.36549 22.2288 3.56837 22.4316C3.77124 22.6345 4.0461 22.7489 4.333 22.75C6.75163 22.7503 9.14662 22.2741 11.3812 21.3486C13.6158 20.4232 15.6461 19.0666 17.3564 17.3564C19.0666 15.6461 20.4232 13.6158 21.3486 11.3812C22.2741 9.14662 22.7503 6.75163 22.75 4.333C22.7489 4.0461 22.6345 3.77124 22.4316 3.56837C22.2288 3.36549 21.9539 3.25105 21.667 3.25H17.875C17.5881 3.25105 17.3132 3.36549 17.1104 3.56837C16.9075 3.77124 16.7931 4.0461 16.792 4.333C16.794 5.64667 16.5857 6.95219 16.175 8.2C16.114 8.39174 16.1074 8.59666 16.1559 8.79193C16.2045 8.9872 16.3063 9.16516 16.45 9.306L18.828 11.689Z" fill="#4D4D4D"/>
</svg>
