<svg id="Capa_1" enable-background="new 0 0 512 512" height="32" viewBox="0 0 512 512" width="32" xmlns="http://www.w3.org/2000/svg">
<g><path d="m319.251 70.67c-3.272-20.527-20.477-37.696-36.075-45.605-7.547-3.827-10.866-7.141-12.176-8.773l-15-16.292-15 16.291c-1.31 1.633-4.628 4.947-12.175 8.774-15.599 7.909-32.804 25.078-36.076 45.605-1.673 10.498-.451 26.23 14.878 41.559l4.394 4.393h87.958l4.394-4.393c15.328-15.329 16.551-31.061 14.878-41.559z" fill="#f9b700"/><path d="m319.251 70.67c-3.272-20.527-20.477-37.696-36.075-45.605-7.547-3.827-10.866-7.141-12.176-8.773l-15-16.292v116.622h43.979l4.394-4.393c15.328-15.329 16.551-31.061 14.878-41.559z" fill="#f49d14"/><path d="m163.923 422.269v12.065h184.154v-12.066c0-14.691 5.721-28.503 16.11-38.892 10.388-10.389 24.2-16.109 38.892-16.109l-.001-210.643c-30.328 0-55.001-24.674-55.001-55.002l-184.154.001c0 30.3-24.65 54.973-55.002 55.001v210.643c14.692 0 28.504 5.721 38.892 16.109 10.389 10.388 16.11 24.201 16.11 38.893z" fill="#ce7000"/><path d="m348.077 434.333v-12.066c0-14.691 5.721-28.503 16.11-38.892 10.388-10.389 24.2-16.109 38.892-16.109l-.001-210.643c-30.328 0-55.001-24.674-55.001-55.002h-92.077v332.711h92.077z" fill="#823c08"/><path d="m393.351 512h-274.702v-39.667c0-27.57 22.43-50 50-50h174.701c27.57 0 50 22.43 50 50v39.667z" fill="#f9b700"/><path d="m393.351 472.333c0-27.57-22.43-50-50-50h-87.351v89.667h137.351z" fill="#f49d14"/><path d="m93.921 156.625v210.641h92.466l69.613-16.011 69.613 16.011h92.466l-.001-210.641z" fill="#f9ecd7"/><path d="m418.078 156.625h-162.078v194.63l69.613 16.011h92.466z" fill="#f5d7b0"/><g><g><path d="m325.613 367.266h-139.226v-74.47c0-18.535 7.257-36 20.435-49.178 13.176-13.176 30.641-20.434 49.172-20.434h.007c38.384 0 69.612 31.228 69.612 69.612z" fill="#fee46f"/></g></g><path d="m325.613 292.795c0-38.384-31.229-69.612-69.612-69.612h-.001v144.082h69.613z" fill="#fed330"/><path d="m241 295.225h30v72.041h-30z" fill="#f9b700"/><path d="m256 295.225h15v72.041h-15z" fill="#f49d14"/></g>
</svg>