<?xml version="1.0" encoding="utf-8"?>
<!-- Generator: Adobe Illustrator 24.1.0, SVG Export Plug-In . SVG Version: 6.00 Build 0)  -->
<svg version="1.1" id="Layer_1" xmlns="http://www.w3.org/2000/svg" xmlns:xlink="http://www.w3.org/1999/xlink" x="0px" y="0px"
	 width="100px" height="auto" viewBox="0 0 738.6 259.8" style="enable-background:new 0 0 738.6 259.8;" xml:space="preserve"
	>
<g>
	<path d="M424.8,18.8c2.6,1.5,6.1,3.1,9.7,5.7s7.2,6.1,10.2,10.6c7,10.7,7.6,23.1,7,35.4c-0.3,6.7-1,13.3-1.5,19.3
		c-1.8,18.4-2.8,37,1.7,55.1c1.5,6,3.5,12,7.3,16.8c3.9,5,9.4,8.5,15.3,10.7c7,2.7,15.1,3.7,21.9,0.7c6.5-2.9,10-8.5,12.2-15
		c0.9-3,1.4-5.8,1.6-8.4c0.7,1.3,1.6,2.7,2.5,4c3.3,4.8,7.9,9.7,14.6,13.2c5.4,2.8,11.4,4.2,17.5,4.7c1.5,1.7,3.1,3.3,4.9,4.8
		c11.7,10.2,28.3,15.1,43.4,10.3c9.1-2.9,16.4-9.1,22-16.8c4.4-6,7.4-12.1,9.9-17.8c0.3-0.6,0.5-1.2,0.8-1.7
		c0.9,1.9,1.9,3.8,3.2,5.7c2.5,3.7,6.1,7.3,10.1,9.8c13.6,8.7,31.7,7.9,45.3-0.6c9.8-6.1,15.4-15.2,19.6-25.6c0.5-1.5,1.6-4.5,2.5-9
		c0.9-4.4,1.4-10.4,0.7-17c-0.8-6.6-2.8-13.9-6.7-20.8C696.7,86,691,79.4,683.7,75c-1.8-1.2-3.8-2.1-5.8-3c-1-0.4-2.5-0.9-3.5-1.3
		c-0.8-0.2-1.6-0.5-2.4-0.7c-4.1-1-8.1-1.3-12-1.2c-3.8,0.2-7.5,0.9-10.8,2c-3.3,1.2-6.2,2.5-8.7,4.3c-5,3.3-8.1,7.5-9.4,10.7
		c-0.7,1.6-1.9,16.5-4.9,24.4c-0.3,0.4-0.5,0.9-0.7,1.5c-0.6,1.4-1.3,3.2-1.9,5.4c-3.4,8.5-7.6,18.1-13.1,27.9
		c-2.8,5.1-5.8,10.1-9.3,14.3c-3.5,4.3-7.5,7.5-11.7,9.2c-5.4,2.2-12.1,1.5-18-1.1c1.7-0.7,3.7-1.6,5.6-2.7c1.9-1.1,3.7-2.4,5.4-3.7
		c17.7-14.3,24-42.1,19.4-63.7c-0.5-2.1-1-4.2-1.8-6.3c-2.5-7.1-6.9-13.6-13-18c-9.3-6.8-22.1-8-32.9-4.1
		c-11.5,4.1-21,13.4-25.7,24.6c-1.2,2.8-3.6,9.2-4.2,17.9c-0.7,8.7,0.6,19.6,4.3,30.9c1.2,3.8,2.7,7.7,4.6,11.6
		c-3.9-1.6-7.6-4.4-10.5-7.5c-6.1-6.6-9.4-13.8-11.1-19c-0.4-1.4-0.8-2.7-1.1-3.8c-0.7-2.7-4.1-3.3-5.9-1.3c0,0.1-0.1,0.1-0.1,0.1
		c-0.9,0.5-5.9,10.3-6.9,15.4c-1,5-2,10.6-4.2,14.9c-1.6,3.1-3.2,4.9-6.9,4.1c-4.3-1-8.2-3-10.9-6.5c-2.5-3.3-3.7-7.3-4.4-11.4
		c-0.9-5.3-1.8-10.8-1.9-16.2c-0.2-10.5,0.9-21,1.4-31.5c0.3-6.3,0.5-12.6,0.6-18.9c0.1-6.2,0.4-12.4-0.8-18.4
		c-0.3-2.2-0.8-4.2-1.4-6.3c-2.2-8.2-6.2-16-11.4-22c-5.3-6-11.7-10.1-17.5-12.1s-10.9-2.1-14.3-1.6c-3.4,0.7-5.2,1.8-5.3,3.1
		C420.6,16.2,422.2,17.5,424.8,18.8 M635.8,120c2.2-9.9,3.1-18.2,3-23.9c0-4.6,2.9-8.7,7.3-9.9h0.1c1.9-0.6,4.2-1,6.4-1.3
		c2.3-0.2,4.7-0.2,7.2,0.1c2.4,0.3,4.9,0.9,7.1,1.8c2.3,0.8,4.3,2.1,6.4,3.7c4,3,7.3,7.3,9.5,11.8c2.2,4.6,3.4,9.4,3.8,13.6
		c0.8,8.5-1.5,14.9-2.1,16.6c-0.4,0.9-1,3-2.5,5.6c-1.4,2.6-3.6,5.7-6.7,8.4c-0.8,0.7-1.6,1.3-2.5,1.9c-0.9,0.5-1.8,1.1-2.8,1.6
		c-2,0.9-4.3,1.7-6.7,2.1c-4.8,0.8-10.3,0.2-14.6-2c-2.2-1.1-4-2.5-5.7-4.3c-1.7-1.9-3.1-4.1-4.2-6.5c-2.3-4.7-3.4-9.9-4.2-14.7
		C635.1,123.1,635.5,121.5,635.8,120 M544.8,113c0.3-5.9,1.8-9.6,2.5-11.3c0.3-0.8,0.9-2.3,1.8-3.8c0.8-1.5,2.2-3.2,4.2-5
		s4.6-3.5,7.7-4.7c3.1-1.1,6.6-1.7,9.6-0.9c0.8,0.1,1.5,0.5,2.2,0.7c0.7,0.4,1.4,0.6,2.1,1.3l1.1,0.8c0.3,0.3,0.6,0.7,1,1
		c0.7,0.6,1.2,1.5,1.8,2.2c2.2,3.3,3.8,8.1,4.2,13.6s0.1,11.6-1.2,17.5c-0.6,3-1.4,6-2.3,8.7c-0.9,2.7-2.1,5.2-3.6,7.5
		s-3.1,4.4-5,6.2c-0.9,0.9-2,1.7-3,2.4c-1.1,0.7-2.1,1.3-3.4,2c-2.6,1.3-5.2,2.3-8,3c-3.8-5.5-6.5-11.9-8.4-18
		C545.2,127,544.4,118.9,544.8,113"/>
	<path d="M385.6,64.7c-1.6,0-5.2,0-10,0.9s-10.9,2.9-17,6.9c-3,2-6.1,4.5-8.8,7.6c-2.7,3.1-5.1,6.5-6.9,10.2
		c-3.7,7.4-5.6,15.5-6.2,23.3c-0.7,7.8-0.1,15.3,1.1,22.1c1.3,7.7,4.3,13.9,7.5,18.7c3.3,4.8,7.1,8.2,10.3,9.8
		c3.2,1.6,5.5,1.5,6.2,0.4c0.7-1.2-0.1-3.1-1.2-5.6c-1.2-2.6-2.8-6-4.1-10.3c-1.3-4.3-2.5-9.5-2.5-14.7c-0.1-5.9,0.2-12.2,1.3-18.2
		c1-6,2.9-11.7,5.4-16.2c1.3-2.3,2.8-4.2,4.3-5.8s3.2-2.9,4.9-4c1.7-1.1,3.5-1.9,5.1-2.5c1.7-0.6,3.2-1.1,4.6-1.3
		c2.8-0.5,4.8-0.5,5.7-0.6c0.9,0,3,0,5.9,0.6c3,0.6,6.9,1.9,11,4.2s8.3,5.7,11.7,10.2c3.3,4.4,5.9,9.8,7.1,15.7
		c1.3,5.8,1.1,12,0,17.6s-3.1,10.7-5.4,14.9c-0.6,1-1.1,2.1-1.7,3s-1.2,1.8-1.7,2.7c-1.1,1.7-2.2,3.1-3,4.4c-1.8,2.4-2.7,4.4-2,5.6
		c0.7,1.2,2.8,1.3,6.2,0.2c1.6-0.7,3.6-1.5,5.7-2.9c1-0.7,2.1-1.5,3.2-2.3s2.1-1.9,3.2-3c4.3-4.4,8.5-10.5,11.1-18
		c2.7-7.4,3.9-16.1,2.9-24.8s-4.3-17.3-9.1-24.5c-4.9-7.1-11.1-12.5-17.2-16.3s-12.2-5.9-17-6.9C391,64.7,387.3,64.8,385.6,64.7"/>
	<path d="M254.6,57c2,2,4.4,3.6,7,5.3c2.6,1.5,5.5,3,8.5,4.1c6.1,2.3,12.9,4,19.9,4.4c7,0.6,14.2,0.1,20.9-1.2
		c6.7-1.2,12.8-3.4,18-5.6c10.4-4.5,17.2-9.7,19.2-11c2-1.4,8.6-6,16-13.6c1.8-1.9,3.7-4,5.6-6.2c1.7-2,3.4-4.2,5.2-6.3
		c3.3-4,6.7-7.2,9.2-8.3c1.2-0.5,2.1-0.7,3.4-0.7c0.3,0.1,0.7,0,1,0.1s0.6,0.2,0.9,0.2c0.5,0.2,1,0.3,1.3,0.5c0.6,0.3,1,0.5,1.4,1.1
		c0.3,0.6,0.6,1.5,0.5,2.4c-0.2,1.9-1.3,3.8-2.6,5.3c-0.6,0.8-1.2,1.4-1.6,2.1s-0.7,1.4-0.6,2.1s0.5,1.3,1.2,1.7
		c0.8,0.5,1.9,0.9,3.5,0.9c0.8,0,1.6,0,2.5-0.3c0.9-0.2,1.9-0.5,2.9-1c2.1-0.9,4.1-2.7,5.9-5.2c1.7-2.5,2.9-5.9,2.8-9.8
		c-0.1-3.8-1.8-8.1-4.8-11.2c-1.5-1.6-3.2-2.8-5.1-3.9c-0.9-0.4-1.8-0.9-2.8-1.3s-2-0.6-3-0.9c-4-1.1-8.9-1-13,0.4
		c-4.2,1.3-7.6,3.5-10.5,5.7c-2.9,2.3-5.2,4.6-7.4,6.9c-2.1,2.3-4,4.4-5.6,6.3c-1.6,1.8-3.3,3.4-4.8,5c-6.3,6.1-11.6,9.9-13.2,11.1
		c-1.6,1.1-7.1,5.3-15.3,9c-4.1,1.9-8.8,3.8-13.9,5c-5.1,1.3-10.6,2.1-16.1,2.2c-5.5,0.2-11-0.4-16-1.3c-5-1-9.5-2.4-13-4
		c-3.6-1.6-6.2-3.4-8.2-5c-1.1-0.7-1.9-1.4-2.7-1.9c-0.8-0.4-1.6-0.6-2.2-0.4c-0.7,0.2-1.1,0.7-1.4,1.7s-0.4,2.4,0,4
		C248.1,48.7,250.5,53.2,254.6,57"/>
	<path d="M737.7,128.8c-0.8-0.8-2.3-1.7-4.6-1.9c-2.2-0.2-5.2,0.4-7.8,2c-2.7,1.6-5.1,4-7.3,6.7c-4.3,5.5-7.6,12.6-10.7,19.9
		c-0.8,1.8-1.5,3.6-2.3,5.3c-0.4,0.9-0.7,1.6-1.1,2.3c-0.5,0.9-0.9,1.8-1.4,2.7c-1.9,3.6-3.8,7.2-5.8,10.7c-4,7.1-8.4,14-13,20.2
		c-4.6,6.1-9.4,11.7-14,15.8c-1.1,1-2.2,2.1-3.3,2.9c-1.1,0.9-2.2,1.7-3.3,2.5c-0.5,0.4-1,0.8-1.5,1.2c-0.5,0.3-1,0.7-1.5,1
		c-1,0.6-1.9,1.2-2.8,1.8c-0.4,0.3-0.9,0.5-1.3,0.8c-0.4,0.2-0.8,0.4-1.2,0.6c-0.8,0.4-1.5,0.8-2.2,1.1c-1.3,0.6-2.3,1.2-2.9,1.5
		c-0.7,0.3-1.7,0.7-3.1,1.3c-0.7,0.3-1.5,0.6-2.3,1c-0.9,0.3-1.9,0.6-2.9,1c-1,0.3-2.2,0.7-3.4,1.1s-2.5,0.6-3.9,1
		c-2.7,0.8-5.7,1.2-9,1.7c-6.5,0.8-14,1-21.7,0.2c-7.8-0.8-15.8-2.9-23.3-5.9c-1.9-0.7-3.7-1.6-5.5-2.5l-2.7-1.3
		c-0.9-0.5-1.8-1-2.6-1.5c-3.5-2-6.8-4.2-9.9-6.5c-6.2-4.6-11.5-9.5-15.9-14c-8.7-9-13.9-16.1-16.5-14.9c-1.2,0.6-1.4,3.1-0.4,7
		c0.1,0.3,0.2,0.7,0.3,1.1c-11.8,1.9-28.4,3.8-46.7,3.8c-4.5,0-9.2-0.1-14.1-0.4c-0.1-0.1-0.2-0.2-0.4-0.2c-0.2,0-0.3,0.1-0.4,0.2
		c-16.6-0.9-34.9-3.8-52.3-10.1l0.1-0.3c0.1-0.3,0-0.7-0.3-0.9c-0.1,0-4.5-3.3-6.2-8.1c0,0,0,0,0-0.1c-0.1-0.3-0.2-0.6-0.3-1
		c0-0.1,0-0.1-0.1-0.2c-0.1-0.3-0.1-0.6-0.2-0.9c0-0.1,0-0.2,0-0.3c0-0.4-0.1-0.8-0.1-1.2c0-0.5-0.4-0.9-0.9-0.9h-10.6l-4.4-8.9
		c1.5-0.9,2.6-2.5,2.6-4.4s-1.1-3.6-2.8-4.5l0,0c-0.5-0.2-1-0.4-1.5-0.5h-0.1c-0.1,0-0.2,0-0.3,0v-14.3c11.6-0.1,21-9.5,21-21.2
		s-9.5-21.2-21.2-21.2s-21.2,9.5-21.2,21.2c0,11.3,8.8,20.5,20,21.1v14.4l0,0c-0.1,0-0.3,0-0.4,0.1H386c-0.5,0.1-1.1,0.3-1.5,0.5
		l0,0c-1.6,0.9-2.8,2.6-2.8,4.5c0,1.8,1,3.4,2.6,4.4l-4.4,8.9h-10.6c-0.5,0-0.9,0.4-0.9,0.9c0,0.4,0,0.8-0.1,1.2c0,0.1,0,0.2,0,0.3
		c0,0.3-0.1,0.6-0.2,0.9c0,0.1,0,0.1-0.1,0.2c-0.1,0.3-0.2,0.7-0.3,1c0,0,0,0,0,0.1c-1.7,4.8-6.1,8.1-6.2,8.1
		c-0.3,0.2-0.4,0.6-0.3,0.9l0.1,0.3c-12.3,1.9-30.2,4-50,4.1c-4.6,0-9.4-0.1-14.4-0.4c-0.1-0.1-0.2-0.2-0.4-0.2
		c-0.2,0-0.3,0.1-0.4,0.2c-17.3-0.9-36.6-3.8-54.8-10.2c1.2-2.8,2.3-5.4,3.3-7.7c3-7.3,4.9-12.4,5.8-14.7c0.8-2,2.3-5.8,4.5-11.2
		c0.2-0.5,0.5-1.1,0.7-1.7l0,0l0,0l0,0l0,0l0,0l0,0l0.1,0.5l0.1,1.1c0.2,0.9,0.3,2,0.6,2.8c0.3,0.9,0.6,1.8,0.9,2.7s0.8,1.8,1.2,2.6
		c1.8,3.5,4.6,6.7,7.8,8.9c3.3,2.3,6.9,3.7,10.5,4.5s7.2,0.9,10.8,0.5c3.6-0.4,7.1-1.4,10.5-3c1.6-0.8,3.5-1.9,4.8-2.9
		c1.4-1,2.7-2.1,4-3.2c2.4-2.3,4.6-4.8,6.4-7.4c3.7-5.2,6.2-10.8,8.1-16.4c1.8-5.7,3-11.3,3.4-17.1c0.3-2.8,0.2-6,0-9
		c-0.3-3-0.8-5.9-1.5-8.8c-1.5-5.7-4-11.1-7.5-15.7c-3.5-4.6-8-8.3-12.9-10.7c-1.2-0.7-2.5-1-3.7-1.5s-2.6-0.8-3.9-1.1
		c-2.6-0.5-5.2-0.6-7.6-0.4c-4.8,0.4-9.1,1.8-12.5,3.8c-3.5,2-6.2,4.5-8,7.1c-1.9,2.6-2.8,5.3-3.3,7.4c-0.4,2.2-0.3,3.9,0,5
		s0.8,1.7,1.3,1.7c1.2,0.1,2.1-1.9,4.1-4.5c1-1.3,2.3-2.7,4-4s3.9-2.4,6.4-3.2s5.4-1.2,8.3-0.9c1.5,0.1,2.9,0.5,4.3,0.9
		c1.3,0.5,2.7,1.2,4.1,2.2c2.7,1.8,5.1,4.2,6.9,7.3s3.2,6.7,3.8,10.6c0.7,4,0.8,8,0.1,12.2c-0.6,4.3-1.8,8.7-3.3,12.9
		c-1.6,4.1-3.6,8-6.1,11.2c-1.2,1.6-2.6,3-4,4.2l-1.1,0.9l-1.1,0.7l-0.5,0.4l-0.5,0.2c-0.3,0.2-0.6,0.4-0.9,0.5
		c-2.6,1.2-6,1.3-8.5,0.7c-1.3-0.3-2.3-0.9-3-1.4c-0.8-0.5-1.1-1.2-1.5-1.9c-0.2-0.3-0.3-0.8-0.4-1.2c-0.1-0.3,0-0.3-0.1-0.6
		c0-0.4-0.1-0.5-0.2-1.9c-0.3-4.4-0.6-8.8-1.8-12.3c-1.2-3.4-3-6-5.3-7.9c-1.1-1-2.5-1.8-3.9-2.5c-0.7-0.3-1.5-0.5-2.2-0.8
		c-0.8-0.2-1.5-0.4-2.2-0.6c-1.6-0.1-3.3-0.3-4.8-0.1c-1.6,0.2-3,0.6-4.4,1.1c-2.7,1.1-5.1,2.8-7.1,5.1c-2,2.2-3.7,5-5.1,7.9
		c-1.3,2.7-2.7,6.4-3,7.1c-2.1,5.3-3.7,9.2-4.5,11.2c-0.9,2.3-2.9,7.4-5.7,14.3c-2.8,6.9-6.5,15.7-11.7,24.9
		c-5.2,9.1-12,18.9-20.8,27.1c-8.7,8.2-19.5,14.6-31.2,16.9c-5.8,1.2-12,1.4-18,0.8c-1.5-0.2-3-0.2-4.4-0.5
		c-1.5-0.3-2.9-0.6-4.4-0.8c-2.8-0.8-5.7-1.4-8.4-2.5c-2.8-0.9-5.3-2.2-7.9-3.3c-1.3-0.6-2.5-1.3-3.7-2c-0.6-0.3-1.2-0.7-1.8-1
		c-0.6-0.4-1.1-0.7-1.7-1.1c-1.1-0.7-2.3-1.4-3.4-2.1c-1.1-0.8-2.1-1.5-3.2-2.3c-2.1-1.4-4-3.1-5.9-4.6
		c-7.4-6.2-12.7-12.3-16.6-16.6c-2-2.1-3.5-3.8-4.8-4.9s-2.3-1.5-2.9-1.2s-0.8,1.3-0.5,3s0.8,4,2.1,6.8c2.3,5.7,6.7,13.5,13.8,21.5
		c1.9,2,3.7,4.1,5.9,6.1c1.1,1,2.2,2,3.3,3c1.2,1,2.4,1.9,3.6,2.9c0.6,0.5,1.2,1,1.9,1.5s1.3,0.9,2,1.4c1.4,0.9,2.7,1.9,4.1,2.8
		c2.9,1.6,5.9,3.5,9.1,4.8c3.2,1.6,6.6,2.7,10.1,3.9c3.6,1,7.2,2,11,2.5c7.6,1.2,15.4,1.4,23.3,0.2c7.9-1.2,15.6-3.7,22.6-7.2
		s13.3-8,18.9-12.9c5.6-4.9,10.3-10.2,14.5-15.5s7.8-10.7,10.8-15.9c3.9-6.6,6.9-12.8,9.3-18.3c6.6,2.3,13.2,4.2,19.9,5.6v12.6
		l-2.6,8.1h-8.6c-0.2,0-0.4,0.1-0.5,0.4c-0.1,0.2,0,0.5,0.2,0.6l6.9,5l-2.7,8.2c-0.1,0.2,0,0.5,0.2,0.6c0.1,0.1,0.2,0.1,0.3,0.1
		c0.1,0,0.2,0,0.3-0.1l6.9-5l6.9,5c0.2,0.1,0.4,0.1,0.6,0s0.3-0.4,0.2-0.6l-2.7-8.2l6.9-5c0.2-0.1,0.3-0.4,0.2-0.6
		c-0.1-0.2-0.3-0.4-0.5-0.4h-8.6l-2.6-8.1v-12.4c11.6,2.5,23.3,3.8,34.1,4.4v25.7c-3.2,1.6-5.4,4.7-5.4,8.4c0,5.2,4.4,9.5,9.8,9.5
		s9.8-4.2,9.8-9.5c0-0.4,0-0.8-0.1-1.3c0-0.3-0.3-0.5-0.5-0.5c-0.3,0-0.5,0.2-0.6,0.5c-0.5,3-3.2,5.3-6.3,5.3
		c-3.5,0-6.4-2.8-6.4-6.2c0-3,2.3-5.7,5.4-6.1c0.3,0,0.5-0.3,0.5-0.5c0-0.3-0.2-0.5-0.5-0.5c-0.4-0.1-0.9-0.1-1.3-0.1
		c-1.1,0-2.2,0.2-3.2,0.6V193c4.9,0.2,9.7,0.4,14.3,0.3c10.7,0,20.8-0.7,29.8-1.5v13.3l-2.6,8.1h-8.6c-0.2,0-0.4,0.1-0.5,0.4
		c-0.1,0.2,0,0.5,0.2,0.6l6.9,5l-2.7,8.2c-0.1,0.2,0,0.5,0.2,0.6c0.1,0.1,0.2,0.1,0.3,0.1c0.1,0,0.2,0,0.3-0.1l6.9-5l6.9,5
		c0.2,0.1,0.4,0.1,0.6,0s0.3-0.4,0.2-0.6l-2.6-8.2l6.9-5c0.2-0.1,0.3-0.4,0.2-0.6c-0.1-0.2-0.3-0.4-0.5-0.4h-8.6l-2.6-8.1v-13.4
		c7.4-0.7,14-1.6,19.5-2.5l15.9,52.1l0,0l1.2,3.8l-6,7.5c-0.2,0.3-0.2,0.6-0.1,0.9c0.2,0.3,0.5,0.5,0.8,0.5h27.3
		c0.3,0,0.7-0.2,0.8-0.5c0.2-0.3,0.1-0.6-0.1-0.9l-6-7.5l1.2-3.8l0,0l16-52.1c5,1.8,10.1,3.3,15.2,4.6v13.5l-2.6,8.1h-8.6
		c-0.2,0-0.4,0.1-0.5,0.4c-0.1,0.2,0,0.5,0.2,0.6l6.9,5l-2.6,8.2c-0.1,0.2,0,0.5,0.2,0.6c0.1,0.1,0.2,0.1,0.3,0.1
		c0.1,0,0.2,0,0.3-0.1l6.9-5l6.9,5c0.2,0.1,0.4,0.1,0.6,0s0.3-0.4,0.2-0.6l-2.7-8.2l6.9-5c0.2-0.1,0.3-0.4,0.2-0.6
		c-0.1-0.2-0.3-0.4-0.5-0.4h-8.6l-2.6-8.1v-13.2c12.3,3,24.7,4.5,36.2,5.2v25.9c-3.2,1.6-5.4,4.7-5.4,8.4c0,5.2,4.4,9.5,9.8,9.5
		s9.8-4.2,9.8-9.5c0-0.4,0-0.8-0.1-1.3c0-0.3-0.3-0.5-0.5-0.5c-0.3,0-0.5,0.2-0.6,0.5c-0.5,3-3.2,5.3-6.3,5.3
		c-3.5,0-6.4-2.8-6.4-6.2c0-3,2.3-5.7,5.4-6.1c0.3,0,0.5-0.3,0.5-0.5c0-0.3-0.2-0.5-0.5-0.5c-0.4-0.1-0.9-0.1-1.3-0.1
		c-1.1,0-2.2,0.2-3.2,0.6v-25.4c4.8,0.3,9.5,0.4,13.9,0.4c9.2,0,18-0.5,25.9-1.3v13.1l-2.6,8.1h-8.6c-0.2,0-0.4,0.1-0.5,0.4
		c-0.1,0.2,0,0.5,0.2,0.6l6.9,5l-2.6,8.2c-0.1,0.2,0,0.5,0.2,0.6c0.1,0.1,0.2,0.1,0.3,0.1s0.2,0,0.3-0.1l6.9-5l6.9,5
		c0.2,0.1,0.4,0.1,0.6,0c0.2-0.1,0.3-0.4,0.2-0.6l-2.6-8.2l6.9-5c0.2-0.1,0.3-0.4,0.2-0.6s-0.3-0.4-0.5-0.4h-8.6l-2.6-8.1v-13.2
		c7.5-0.7,14.3-1.6,20-2.5c1.2,3.6,3.2,8.1,6.2,13.1c7.3,11.9,20.6,26.3,38.8,35c8.9,4.4,18.7,7.4,28.2,8.8s18.7,1.4,26.7,0.6
		c16.2-1.9,27.5-7.1,30.8-8.5c0.8-0.3,2.1-1,3.7-1.8c1.6-0.9,3.8-1.8,6-3.2c4.6-2.8,10.4-6.6,16.1-12.2
		c11.4-10.6,21.9-26.3,29.5-42.3c1.9-4,3.7-8,5.3-12c0.4-1,0.8-2,1.2-3l0.7-1.7l0.6-1.7c0.7-2.1,1.2-4.1,1.8-6
		c2.1-7.5,3.9-13.9,6-18.6c1-2.3,2.1-4.2,3-5.5s1.7-2.1,2.5-2.7c1.7-1.3,3.9-1.7,4.3-3C738.8,130.4,738.6,129.6,737.7,128.8
		 M263.6,209.6c0.1,0.2,0.3,0.4,0.5,0.4h7.3l-5.9,4.3c-0.2,0.1-0.3,0.4-0.2,0.6l2.3,7l-5.9-4.3c-0.2-0.1-0.4-0.1-0.6,0l-5.9,4.3
		l2.3-7c0.1-0.2,0-0.5-0.2-0.6l-5.9-4.3h7.3c0.2,0,0.4-0.1,0.5-0.4l2.3-7L263.6,209.6z M298.4,219c-2,1.3-3.3,3.5-3.3,6
		c0,4,3.4,7.3,7.5,7.3c2.5,0,4.8-1.2,6.2-3.2c-0.9,3.7-4.3,6.5-8.4,6.5c-4.8,0-8.7-3.8-8.7-8.4C291.6,223.2,294.5,219.9,298.4,219
		 M344,213.9c0.1,0.2,0.3,0.4,0.5,0.4h7.3l-5.9,4.3c-0.2,0.1-0.3,0.4-0.2,0.6l2.3,7l-5.9-4.3c-0.2-0.1-0.4-0.1-0.6,0l-5.9,4.3l2.3-7
		c0.1-0.2,0-0.5-0.2-0.6l-5.9-4.3h7.3c0.2,0,0.4-0.1,0.5-0.4l2.3-7L344,213.9z M383.1,160.9c0-1.3,0.7-2.5,1.8-3.2
		c0,0,0.1,0,0.1-0.1c0.2-0.1,0.4-0.2,0.6-0.3c0,0,0,0,0.1,0c0.3-0.1,0.6-0.2,1-0.2v2.2c0,0.3,0.3,0.6,0.7,0.6s0.7-0.3,0.7-0.6v-2.2
		c0.3,0.1,0.6,0.1,0.8,0.2c0,0,0,0,0.1,0c0.2,0.1,0.4,0.2,0.6,0.3c0,0,0.1,0,0.1,0.1c1.1,0.7,1.8,1.9,1.8,3.2c0,1.5-1,2.9-2.4,3.5
		l0,0c-0.6,0.2-1.1,0.4-1.7,0.4s-1.2-0.1-1.7-0.4l0,0C384.1,163.8,383.1,162.5,383.1,160.9 M385.6,165.8c0.2,0.1,0.5,0.1,0.8,0.2
		c0,0,0,0,0.1,0c0.3,0,0.5,0.1,0.8,0.1l0,0l0,0c0.3,0,0.5,0,0.8-0.1c0,0,0,0,0.1,0c0.3,0,0.5-0.1,0.8-0.2l4.1,8.4h-11.6L385.6,165.8
		z M369.2,180c0.1-0.1,0.1-0.3,0.2-0.4c0.1-0.2,0.2-0.5,0.2-0.7c0.1-0.2,0.1-0.4,0.2-0.6c0-0.1,0.1-0.3,0.1-0.4
		c0-0.2,0.1-0.4,0.1-0.6c0-0.1,0-0.2,0.1-0.3c0.1-0.3,0.1-0.7,0.1-1h34.1c0,0.3,0.1,0.7,0.1,1c0,0.1,0,0.2,0.1,0.3
		c0,0.2,0.1,0.4,0.1,0.6c0,0.1,0.1,0.3,0.1,0.4c0.1,0.2,0.1,0.4,0.2,0.6s0.2,0.5,0.2,0.7c0.1,0.1,0.1,0.3,0.2,0.4
		c0.1,0.2,0.1,0.3,0.2,0.5H369C369.1,180.3,369.1,180.1,369.2,180 M368.3,181.7h37.8c1.1,1.9,2.4,3.5,3.5,4.6h-44.9
		C365.9,185.2,367.3,183.6,368.3,181.7 M365.5,195.3c2.7,2.1,5.9,2.8,7.1,3l6.1,38.6l-0.5,0.1L365.5,195.3z M399.1,252.2h-23.7
		l4.9-6.1h13.8L399.1,252.2z M379.7,241.9h14.9l-0.8,2.5h-13.4L379.7,241.9z M396.2,237.1l-0.5-0.1l6.1-38.6c1.2-0.2,4.4-0.9,7.1-3
		L396.2,237.1z M401.1,197.1c-0.3,0-0.5,0.3-0.6,0.5l-6.2,39.2l0.8-12c0-0.4-0.3-0.7-0.6-0.7c-0.4,0-0.7,0.2-0.7,0.6l-0.8,11.7h-9.6
		l-2.4-37.1c1.4-0.6,5.3-2.5,7.2-6.4c1.9,4,5.8,5.9,7.2,6.4l-1.2,22.2c0,0.4,0.3,0.7,0.6,0.7c0.4,0,0.7-0.2,0.7-0.6l1.2-22.6
		c0-0.3-0.2-0.5-0.5-0.6c-0.1,0-6-2.1-7.5-7.5c-0.1-0.3-0.3-0.5-0.7-0.5c-0.3,0-0.6,0.2-0.7,0.5c-1.5,5.4-7.4,7.5-7.5,7.5
		c-0.3,0.1-0.5,0.4-0.5,0.6l2.5,38.2c0,0.3,0.3,0.6,0.7,0.6h10.9c0.3,0,0.5-0.2,0.6-0.4l0,0c-0.1,0.3,0.2,0.7,0.5,0.7l1,0.2
		l-0.6,1.9h-16l-0.6-1.9l1-0.2c0.4-0.1,0.6-0.4,0.5-0.7l-6.3-39.7c0-0.3-0.3-0.5-0.6-0.5c-0.1,0-5.4-0.7-8.6-4.4l-1.5-4.7h47.9
		l-1.5,4.7C406.5,196.5,401.2,197.1,401.1,197.1 M430.7,216c0.1,0.2,0.3,0.4,0.5,0.4h7.3l-5.9,4.3c-0.2,0.1-0.3,0.4-0.2,0.6l2.3,7
		l-5.9-4.3c-0.2-0.1-0.4-0.1-0.6,0l-5.9,4.3l2.3-7c0.1-0.2,0-0.5-0.2-0.6l-5.9-4.3h7.3c0.2,0,0.4-0.1,0.5-0.4l2.3-7L430.7,216z
		 M467.6,225.4c-2,1.3-3.3,3.5-3.3,6c0,4,3.4,7.3,7.5,7.3c2.5,0,4.8-1.2,6.2-3.2c-0.9,3.7-4.3,6.5-8.4,6.5c-4.8,0-8.7-3.8-8.7-8.4
		C460.9,229.6,463.8,226.2,467.6,225.4 M509,220.2c0.1,0.2,0.3,0.4,0.5,0.4h7.3l-5.9,4.3c-0.2,0.1-0.3,0.4-0.2,0.6l2.3,7l-5.9-4.3
		c-0.2-0.1-0.4-0.1-0.6,0l-5.9,4.3l2.3-7c0.1-0.2,0-0.5-0.2-0.6l-5.9-4.3h7.3c0.2,0,0.4-0.1,0.5-0.4l2.3-7L509,220.2z"/>
	<path d="M65,223c-2.8-5.2-6.2-10.5-10.5-15.8c-2.2-2.6-4.5-5.3-7.1-7.8c-2.5-2.6-5.3-4.9-7.8-7.2c-5.1-4.5-9.8-8.8-12.3-13.3
		c-0.4-0.6-0.5-1.1-0.8-1.5c-0.2-0.5-0.4-1-0.5-1.5c-0.3-1-0.5-2.2-0.6-3.3c-0.2-2.2,0.3-4.4,1-5.6c0.3-0.6,0.7-1,1-1.3
		s0.7-0.4,1.4-0.6c1.2-0.4,3.8-0.4,7.2-0.1c3.5,0.3,7.7,1,13,0.5c2.7-0.3,5.6-0.9,8.5-2.2s5.5-3.2,7.7-5.4c4.1-4.4,6.1-9.4,7.2-13.8
		c1.7,3,3.5,5.9,5.4,8.7c4.1,5.9,8.7,12.1,15.2,17.5c3.3,2.7,6.9,5.1,11.2,6.9c4.3,1.8,8.9,2.8,13.7,2.9s9.8-0.8,14.5-3.2
		c4.7-2.4,8.7-6.2,11.3-10.4c0.4-0.7,0.8-1.4,1.2-2.2c3.6,2.4,7.7,4.6,12.2,6.1c6,2,12.5,2.8,18.8,2.5c6.3-0.6,12.3-2.4,17.1-4.9
		c2.4-1.2,4.4-2.8,6.4-4c1.8-1.5,3.4-3,4.8-4.2c0.7-0.6,1.2-1.3,1.7-1.9c0.5-0.6,0.9-1.1,1.3-1.6c0.8-1,1.3-1.7,1.7-2.2
		c0.7-0.9,1.9-2.9,3.7-5.6c0.8-1.4,1.6-3.1,2.6-4.9c0.9-1.8,1.6-3.9,2.5-6.1c3.3-8.8,4.7-20.7,3-31.9c-0.3-1.4-0.6-2.8-0.9-4.2
		l-0.5-2.1l-0.6-2c-0.5-1.3-0.9-2.6-1.3-3.9c-0.5-1.3-1.1-2.5-1.7-3.7c-2.3-4.8-5.3-8.7-8.2-11.6c-3-2.8-5.8-4.8-8.2-5.6
		s-4-0.7-4.9,0.3c-0.9,1.1-0.8,2.8-0.1,4.9c0.8,2,1.8,4.7,3,7.7c2.4,6,4.6,14,4.9,22.3c0.2,8.3-1.4,16.7-3.8,22.8
		c-0.7,1.5-1.2,2.9-1.8,4.2c-0.7,1.2-1.3,2.3-1.8,3.3c-1.2,1.8-2.1,3.1-2.5,3.7c-0.5,0.5-1.3,1.8-2.7,3.3c-0.7,0.6-1.6,1.4-2.5,2.2
		c-1.1,0.7-2.2,1.6-3.5,2.3c-2.6,1.4-5.8,2.7-9.4,3.3c-3.6,0.5-7.7,0.4-11.8-0.4c-4.1-0.8-8.1-2.4-11.8-4.1c-0.6-0.4-1.2-0.7-1.8-1
		c0-2.4-0.2-4.8-0.6-7.1c-1.4-8.1-4.6-14.7-7.7-20.3c-3.1-5.5-6.1-10.3-9.5-14.8c-12.9-17.3-34.4-30.8-56.5-22.7
		c-3.7,1.4-7.3,3.3-10.4,5.8c-2.9,2.4-5.8,5.4-7.9,9.2s-3.3,8-3.9,12.1c-1,8.2,0.4,15.3,0.8,21.3c0.2,2.7,0.1,5.4-0.3,7.7
		c-0.5,2.3-1.3,4.3-2.1,5.3c-0.9,1-1.5,1.5-3.5,1.9c-2.1,0.3-5.3,0.1-9.2-0.2c-2-0.1-4.1-0.3-6.6-0.2c-2.4,0.1-5.1,0.3-7.9,1.2
		c-1.4,0.4-2.8,1.1-4.2,1.7c-1.4,0.8-2.7,1.6-3.9,2.7c-2.4,2-4.3,4.6-5.6,7.2c-2.6,5.3-3.1,10.6-2.6,15.5c0.3,2.5,0.8,4.9,1.6,7.2
		c0.4,1.2,0.9,2.3,1.4,3.4c0.6,1.1,1.2,2.3,1.8,3.2c5,7.8,11.5,12.7,17,16.9c2.8,2.1,5.4,4,7.7,6c2.4,2,4.6,4,6.7,6.1
		c4.2,4.2,7.7,8.5,10.8,12.7c6.1,8.4,10,16.3,12.8,21.9s4.5,9,5.9,8.7c1.3-0.2,1.9-4.1,1.1-10.7C73.1,242.8,70.5,233.4,65,223
		 M79.4,103.2c0.4-0.2,0.8-0.4,1.2-0.6c1.4-0.5,2.8-1,4.2-1.2c2.8-0.5,5.3-0.4,7.2-0.2c1.9,0.2,3.3,0.7,4.1,1
		c1.8,0.7,5.8,2.3,10.6,6.6c4.9,4.3,10.5,11.6,15.9,21c2.3,3.9,4.2,8,5.3,11.9c0.1,0.5,0.1,0.9,0.3,1.5c0.1,0.2,0.2,0.5,0.3,0.7
		c0.2,1.1,0.3,2.1,0.4,3.1c0.1,1.1,0,2.1-0.1,3.2c-0.2,2.1-0.9,4.1-1.8,5.7c-0.9,1.6-2,2.7-3.3,3.4c-1.4,0.8-3.2,1.3-5.3,1.4
		c-2.1,0.1-4.5-0.3-6.7-1.1c-2.1-0.7-4.5-2.1-6.7-3.8c-4.4-3.3-8.6-8.2-12.7-13.3c-4-5.1-7.3-10.1-9.6-15.2c-2.4-5.1-3.7-10-4-14.8
		C78.3,109.2,78.6,106,79.4,103.2"/>
	<path d="M512.6,67.4c11.7,0,21.2-9.5,21.2-21.2S524.3,25,512.6,25s-21.2,9.5-21.2,21.2C491.5,58,501,67.4,512.6,67.4"/>
	<path d="M176.4,179.6c-9.6,0-17.3,7.8-17.3,17.3c0,9.6,7.8,17.3,17.3,17.3c9.6,0,17.3-7.8,17.3-17.3
		C193.7,187.3,186,179.6,176.4,179.6"/>
	<path d="M140.1,183c-9.6,0-17.3,7.8-17.3,17.3c0,9.6,7.8,17.3,17.3,17.3c9.6,0,17.3-7.8,17.3-17.3S149.6,183,140.1,183"/>
	<path d="M662.9,43.2c4.1-1.9,46.3-19.6,43.2-26.3s-44.7,11.8-48.8,13.7c-4.1,1.9-47.9,22.4-44.8,29.1
		C615.5,66.5,658.8,45.1,662.9,43.2"/>
	<path d="M556,21.3c1.2,0.2,2.2-2.2,5.4-3.5c1.6-0.6,3.7-1,5.8-0.7s3.9,1.2,5.5,3c1.5,1.7,2.7,4,3.2,6.4c0.3,1.2,0.4,2.4,0.5,3.6
		c0.1,0.5,0,4-1.1,6.9c-0.4,1.5-0.9,2.9-1.3,4.3c-0.4,1.4-0.8,2.7-0.9,3.6c-0.1,1.7,0.2,2.4,0.4,3c0.5,1,0.8,1.3,0.9,1.5
		c0.1,0.2,0.1,0.2,0.5,0.7s1.7,1.5,3.3,1.8c0.8,0.2,1.6,0.1,1.9,0.1c0.3,0,0.6-0.1,1.1-0.2c0.8-0.3,2-0.5,3.8-3.2
		c1.8-3.4,3.5-7.2,5.4-10.7l0.7-1.3l0.6-1.1c0.2-0.4,0.5-0.8,0.7-1.2c0.5-0.8,1-1.5,1.5-2.2s1-1.3,1.5-1.9c0.5-0.5,0.8-0.9,1.4-1.2
		c1.1-0.7,2.4-1.3,3.7-1.5c2.6-0.6,4.8-0.2,6.3,0.4c1.5,0.5,2.5,1.3,3.1,0.9c0.6-0.3,0.7-1.9-1-3.8c-1.6-1.9-5.1-3.6-9.2-3.4
		c-2,0.1-4.2,0.5-6.4,1.6c-1.1,0.5-2.2,1.3-3.1,2.1c-0.9,0.8-1.7,1.6-2.4,2.5s-1.4,1.7-2,2.6c-0.3,0.4-0.6,0.9-0.9,1.3
		c-0.1,0.1-0.2,0.2-0.1,0.2l0,0h-0.1c-0.2,0.1-0.2,0.2-0.3,0.1c-0.2-0.1,0-0.6,0-0.5c0,0,0,0.1-0.1,0.1c0,0,0,0,0-0.1l0,0l0,0v-0.3
		c0-0.4,0-0.8,0-1.2c-0.1-1.7-0.4-3.4-0.9-5.1c-0.9-3.5-2.8-7-5.6-9.7c-1.4-1.4-3-2.5-4.9-3.3s-3.8-1.1-5.5-1.1
		c-3.6,0-6.7,1.3-8.8,2.9c-2.2,1.7-3.3,3.8-3.5,5.4C555.1,20.3,555.5,21.2,556,21.3"/>
	<path d="M130.7,58c1.1-0.4,0.8-3,3-5.7c1.1-1.3,2.7-2.7,4.7-3.5s4-0.9,6.3-0.1c2.2,0.7,4.3,2.2,6,4c0.8,0.9,1.6,1.9,2.2,2.9
		c0.3,0.4,1.9,3.5,2.5,6.5c0.4,1.5,0.7,3,1,4.4s0.6,2.8,1,3.6c0.7,1.6,1.4,2,1.8,2.4c0.9,0.6,1.3,0.7,1.5,0.8s0.2,0.1,0.8,0.3
		s2.2,0.5,3.8-0.1c0.8-0.2,1.4-0.7,1.7-0.9s0.5-0.4,0.8-0.7c0.6-0.6,1.5-1.5,1.8-4.6c-0.1-3.8-0.5-8-0.5-11.9v-1.5v-1.3
		c0-0.5,0-0.9,0-1.4c0-0.9,0.1-1.8,0.2-2.7c0.1-0.8,0.2-1.7,0.4-2.4s0.3-1.2,0.6-1.8c0.6-1.2,1.5-2.3,2.5-3.1c2-1.8,4.1-2.5,5.7-2.8
		c1.6-0.3,2.8-0.1,3.2-0.8c0.4-0.5-0.3-2-2.7-2.9c-2.3-0.9-6.2-0.6-9.7,1.6c-1.8,1-3.4,2.5-4.8,4.5c-0.7,0.9-1.3,2.3-1.6,3.4
		c-0.4,1.1-0.6,2.2-0.8,3.3s-0.3,2.2-0.4,3.2c-0.1,0.5-0.1,1.1-0.1,1.6c0,0.1,0,0.3,0,0.2l0,0v0.1c-0.1,0.2-0.1,0.3-0.2,0.3
		c-0.2,0-0.3-0.5-0.2-0.4c0,0,0,0.1-0.1,0.1c0,0,0,0-0.1,0l0,0l0,0l-0.1-0.2c-0.2-0.3-0.4-0.7-0.7-1.1c-0.9-1.4-2-2.8-3.3-4.1
		c-2.5-2.6-5.8-4.8-9.7-5.7c-1.9-0.5-3.8-0.7-5.9-0.4c-2,0.2-3.8,0.9-5.4,1.8c-3.1,1.8-5.2,4.4-6.3,6.9c-1,2.6-1,5-0.4,6.4
		C129.4,57.7,130.2,58.2,130.7,58"/>
	<path d="M15.4,122.3c4.3,0.3,8.6-0.8,12.1-3.3c1.7-1.3,3.2-3,4.1-4.8c0.9-1.8,1.3-3.7,1.3-5.4c0-3.4-1.5-5.9-2.9-7.1
		c-1.4-1.2-2.5-1.3-3-0.8c-1.1,1,0.5,4.1-0.7,7.3c-0.6,1.6-1.7,2.9-3.4,3.7s-4.1,1.1-6.3,0.7c-2.2-0.4-3.9-1.5-4.7-2.8
		c-0.8-1.2-1-2.8-0.8-4.4c0.2-1.7,0.9-3.2,1.5-4.3s1.2-1.8,1.5-2.2c0.6-0.8,2.9-3.3,7-6.9c2-1.8,4.5-3.9,7-6.5s5-6,6.6-9.6
		c1.6-3.7,2.3-7.6,2.3-11.2c0-3.6-0.8-6.9-1.8-9.4c-2.3-5.1-5.4-7.2-6.5-6.4c-1.3,0.8-0.3,3.8,0,8c0.4,4.2-0.2,9.7-2.9,14.5
		c-1.3,2.4-3,4.4-5.1,6.4s-4.4,3.9-6.6,5.7c-4.4,3.5-7.7,7.1-8.5,8.3c-0.9,1.2-4.5,5.1-5.5,12.3c-0.2,1.8-0.2,3.8,0.3,6
		c0.5,2.1,1.5,4.4,3,6.3c1.5,1.9,3.4,3.4,5.5,4.5C11,121.6,13.2,122.1,15.4,122.3"/>
	<path d="M383.7,189.4h-12.8c-0.2,0-0.4,0.1-0.5,0.3c-0.1,0.2-0.2,0.4-0.1,0.6s1.5,4.8,6.8,6.4c0.1,0,0.1,0,0.2,0s0.1,0,0.2,0
		c5.3-1.7,6.8-6.2,6.8-6.4c0.1-0.2,0-0.4-0.1-0.6C384.1,189.5,383.9,189.4,383.7,189.4 M377.3,195.4c-3.2-1.1-4.8-3.4-5.4-4.7h10.8
		C382.1,192,380.5,194.3,377.3,195.4"/>
	<path d="M405,189.4h-12.8c-0.2,0-0.4,0.1-0.5,0.3c-0.1,0.2-0.2,0.4-0.1,0.6s1.5,4.8,6.8,6.4c0.1,0,0.1,0,0.2,0s0.1,0,0.2,0
		c5.3-1.7,6.8-6.2,6.8-6.4c0.1-0.2,0-0.4-0.1-0.6C405.4,189.5,405.2,189.4,405,189.4 M398.6,195.4c-3.2-1.1-4.8-3.4-5.4-4.7H404
		C403.4,192,401.8,194.3,398.6,195.4"/>
	<polygon points="87,65.3 92.4,57.8 101.6,58 96.2,50.6 99.3,41.8 90.5,44.7 83.1,39.1 83.1,48.3 75.5,53.6 84.3,56.4 	"/>
	<polygon points="705.2,50.4 697.6,55.7 706.4,58.6 709,67.4 714.5,59.9 723.7,60.2 718.3,52.7 721.3,43.9 712.5,46.8 705.2,41.2 	
		"/>
</g>
</svg>
