<?xml version="1.0" encoding="utf-8"?>
<!-- Generator: Adobe Illustrator 24.1.0, SVG Export Plug-In . SVG Version: 6.00 Build 0)  -->
<svg version="1.1" id="Layer_1" xmlns="http://www.w3.org/2000/svg" xmlns:xlink="http://www.w3.org/1999/xlink" x="0px" y="0px"
	 width="120px" height="120px" viewBox="0 0 120 120" style="enable-background:new 0 0 120 120;" xml:space="preserve">
<style type="text/css">
	.st0{opacity:0.22;}
	.st1{fill:#DCC45F;}
	.st2{fill:#F0CE45;}
	.st3{fill:#11AB8E;}
	.st4{fill:#EE7A22;}
	.st5{fill:#7C4D9F;}
	.st6{fill:none;}
	.st7{fill:#EED363;}
</style>
<g class="st0">
	<path class="st1" d="M35.5,57.2L35,55.9l-0.1-16.3l2.4-1H26.5l5,2.2c-0.3,0.1-0.4,0.4-0.4,0.7c0,0.4,0.2,0.7,0.6,0.8v2.7h0.4v-2.7
		c0.3-0.1,0.6-0.4,0.6-0.8c0-0.3-0.2-0.6-0.4-0.7l2.3-1l0.1,16.2l-0.4,1.2l-1.9,0.1l1.5,1.1l-0.5,1.8l1.5-1.1l1.5,1.1l-0.5-1.8
		l1.5-1.1L35.5,57.2z M31.9,41.8c-0.2,0-0.4-0.2-0.4-0.4s0.2-0.4,0.4-0.4c0.2,0,0.4,0.2,0.4,0.4C32.2,41.6,32,41.8,31.9,41.8z"/>
	<polygon class="st1" points="46.1,59 46.8,59 46.8,60.1 59.1,60.1 59.1,59 59.8,59 59.8,58.4 46.1,58.4 	"/>
	<path class="st1" d="M60,40.4h0.8v-0.6H45.2v0.6h0.6v17h-0.9v0.6h16v-0.6H60V40.4z M55.6,42.1c-0.3-0.4-0.5-0.7-0.8-1
		c-0.3-0.3-0.7-0.6-0.9-0.7h1.7L55.6,42.1L55.6,42.1z M56.7,40.4h2.1c-0.3,0.2-0.6,0.4-1,0.8c-0.4,0.4-0.8,0.9-1.2,1.6L56.7,40.4
		L56.7,40.4z M50.3,40.4H52c-0.7,0.4-1.3,1.1-1.8,1.9V40.4z M49.1,42.7c-0.4-0.7-0.8-1.2-1.2-1.6c-0.4-0.4-0.7-0.6-1-0.8h2.1
		L49.1,42.7L49.1,42.7z M50.3,43.7c0.3-1,1.1-2.5,2.7-3.1c0.4,0.2,1.9,1.1,2.6,2.8v14h-5.3V43.7z M56.7,44.1c0.3-1,0.8-1.9,1.5-2.6
		c0.2-0.2,0.5-0.4,0.7-0.6v16.4h-2.2L56.7,44.1L56.7,44.1z M46.9,41c0.7,0.5,1.7,1.4,2.2,3.1v13.2h-2.2V41z"/>
	<path class="st1" d="M46.8,60.6l5.7,2.5c-0.3,0.2-0.6,0.5-0.6,0.9c0,0.5,0.3,0.8,0.7,1v3.4h0.6V65c0.4-0.1,0.7-0.5,0.7-1
		c0-0.4-0.2-0.8-0.6-0.9l5.7-2.5H46.8z M53,64.5c-0.2,0-0.4-0.2-0.4-0.4c0-0.2,0.2-0.4,0.4-0.4c0.2,0,0.4,0.2,0.4,0.4
		C53.4,64.3,53.2,64.5,53,64.5z"/>
	<path class="st1" d="M60.9,32.3c-1.2-2.5-5.8-4.6-7.7-6.5c0,0,0,0,0,0c0.3,1.1,1.1,1.9,2,2.8c0.5,0.5,0.9,1,1.3,1.5
		c1.7,2.3,1.8,5.6,0.4,8h-0.7c1.5-2.3,1.4-5.5-0.2-7.7c-0.4-0.5-0.8-1-1.3-1.5c-0.7-0.7-1.4-1.5-1.9-2.4c-0.4,0.9-1.2,1.7-1.9,2.4
		c-0.5,0.5-0.9,1-1.3,1.5c-1.6,2.2-1.7,5.4-0.2,7.7h-0.7c-1.4-2.4-1.3-5.7,0.4-8c0.4-0.5,0.9-1,1.3-1.5c0.9-0.9,1.7-1.7,2-2.8
		c0,0,0,0,0-0.1c-2,2-6.7,3.8-7.7,6.5c-1.1,2.9-0.1,4.9,0.8,5.9h-1v1.1h16.6v-1.1h-1C61.1,37.2,62.3,35.1,60.9,32.3z"/>
	<polygon class="st1" points="8.8,79.3 9.6,79.3 9.6,80.5 23.6,80.5 23.6,79.3 24.4,79.3 24.4,78.6 8.8,78.6 	"/>
	<path class="st1" d="M24.7,58h0.9v-0.6H7.7V58h0.7v19.4h-1v0.6h12.8v0.3h1.3v-0.3h4.2v-0.6h-1L24.7,58L24.7,58z M20.2,58.6v2.6
		c-0.4-1.1-1-1.8-1.5-2.4c-0.4-0.4-0.7-0.6-1.1-0.9h5.7c-0.3,0.2-0.7,0.5-1.1,0.9c-0.2,0.2-0.5,0.5-0.7,0.8v-1.1L20.2,58.6
		L20.2,58.6z M12.2,60.7c-0.4-0.8-0.9-1.4-1.3-1.8c-0.4-0.4-0.8-0.7-1.1-0.9h2.5V60.7z M13.5,58h2c-0.8,0.5-1.5,1.2-2,2.2V58z
		 M9.7,58.7c0.8,0.5,1.9,1.6,2.5,3.6v15.1H9.7C9.7,77.4,9.7,58.7,9.7,58.7z M13.5,77.4V61.8c0.4-1.2,1.2-2.8,3.1-3.6
		c0.6,0.3,3.3,1.8,3.3,5.2h0c0,0.1,0,0.1,0,0.2l0.3,0v13.9H13.5z M21.5,60.9c0.3-0.6,0.7-1.1,1.1-1.5c0.3-0.3,0.5-0.5,0.8-0.7v18.7
		h-1.9C21.5,77.4,21.5,60.9,21.5,60.9z"/>
	<path class="st1" d="M9.6,81.1l6.5,2.9c-0.4,0.2-0.6,0.6-0.6,1c0,0.5,0.4,1,0.8,1.1V90h0.6v-3.9c0.5-0.1,0.8-0.6,0.8-1.1
		c0-0.5-0.3-0.9-0.7-1.1l6.5-2.8H9.6z M16.6,85.6c-0.3,0-0.5-0.2-0.5-0.5s0.2-0.5,0.5-0.5s0.5,0.2,0.5,0.5
		C17.1,85.3,16.9,85.6,16.6,85.6z"/>
	<path class="st1" d="M25.7,48.7c-1.4-2.9-6.7-5.2-8.8-7.4c0,0,0,0,0,0c0.4,1.2,1.3,2.2,2.3,3.2c0.5,0.5,1.1,1.1,1.5,1.7
		c1.9,2.6,2.1,6.4,0.4,9.2h-0.8c1.7-2.6,1.7-6.3-0.2-8.8c-0.4-0.6-1-1.1-1.5-1.7c-0.8-0.8-1.6-1.7-2.1-2.8c-0.5,1-1.3,1.9-2.1,2.8
		c-0.5,0.5-1,1.1-1.5,1.7c-1.9,2.5-1.9,6.2-0.2,8.8H12c-1.6-2.8-1.5-6.5,0.4-9.2c0.5-0.6,1-1.2,1.5-1.7c1-1,1.9-2,2.3-3.2
		c0,0,0,0,0-0.1c-2.2,2.3-7.6,4.3-8.8,7.4c-1.3,3.3-0.1,5.6,0.9,6.8H7.1v1.2H26v-1.2h-1.2C25.9,54.3,27.2,52,25.7,48.7z"/>
	<path class="st1" d="M69,22.5h1.4l-0.2,0l1.4,8.9h-0.5V32h10.1v-0.6h-0.5l1.4-8.9l-0.2,0h1.4v-0.3H69V22.5z M70.9,22.5h2.9l0.4,8.9
		h-2L70.9,22.5z M74.5,22.5h3.3l-0.4,8.9h-2.4L74.5,22.5z M80,31.4h-2l0.4-8.9h2.9L80,31.4z"/>
	<rect x="69.4" y="21.2" class="st1" width="13.4" height="0.6"/>
	<path class="st1" d="M70,20.9c0.2,0,5.9,0,6.2,0l0,0c0.2,0,6,0,6.2,0c0.2,0-0.1-2.3-3.2-3.2c-2.6-0.7-2.9-1.7-2.9-1.7l0,0l0,0l0,0
		l0,0c0,0-0.3,1-2.9,1.7C70.1,18.5,69.8,20.9,70,20.9z"/>
	<polygon class="st1" points="71.6,32.7 72,32.7 72,33.4 80.3,33.4 80.3,32.7 80.7,32.7 80.7,32.3 71.6,32.3 	"/>
	<path class="st1" d="M72,33.8l3.8,1.7c-0.2,0.1-0.3,0.3-0.3,0.5c0,0.3,0.2,0.5,0.4,0.6v2h0.3v-2c0.2-0.1,0.4-0.3,0.4-0.6
		c0-0.2-0.1-0.4-0.3-0.5l3.9-1.7L72,33.8L72,33.8z M76.1,36.3c-0.1,0-0.3-0.1-0.3-0.3c0-0.1,0.1-0.3,0.3-0.3s0.3,0.1,0.3,0.3
		C76.4,36.1,76.3,36.3,76.1,36.3z"/>
	<path class="st1" d="M22.5,23.7h1.8l-0.2,0L26,35.4h-0.7v0.8h13.3v-0.8h-0.7l1.9-11.6l-0.2,0h1.8v-0.4H22.5V23.7z M25,23.7h3.9
		l0.6,11.7h-2.6L25,23.7z M29.7,23.7h4.3l-0.6,11.7h-3.2L29.7,23.7z M36.9,35.4h-2.6l0.6-11.7h3.9L36.9,35.4z"/>
	<rect x="23.1" y="22" class="st1" width="17.6" height="0.8"/>
	<path class="st1" d="M23.8,21.5c0.2,0,7.8,0,8.1,0l0,0c0.3,0,7.9,0,8.1,0c0.2,0-0.2-3.1-4.3-4.2c-3.4-1-3.8-2.2-3.8-2.2l0,0l0,0
		l0,0l0,0c0,0-0.4,1.3-3.8,2.2C24,18.5,23.6,21.5,23.8,21.5z"/>
	<polygon class="st1" points="25.9,37.1 26.5,37.1 26.5,38 37.3,38 37.3,37.1 37.9,37.1 37.9,36.6 25.9,36.6 	"/>
</g>
<polygon class="st2" points="30.7,47.1 31.3,48.7 32.9,48.7 31.6,49.7 32.1,51.3 30.7,50.4 29.4,51.3 29.8,49.7 28.5,48.7 
	30.2,48.7 "/>
<g>
	<g>
		<rect x="7.5" y="49.1" class="st3" width="1.1" height="17.4"/>
	</g>
	<g>
		<rect x="10.8" y="49.1" class="st3" width="1.1" height="17.4"/>
	</g>
	<g>
		<rect x="6.8" y="48.8" class="st3" width="15.7" height="0.6"/>
	</g>
	<g>
		<rect x="7.8" y="67.5" class="st3" width="13.7" height="0.6"/>
	</g>
	<g>
		<rect x="6.6" y="66.5" class="st3" width="16.1" height="0.6"/>
	</g>
	<g>
		<path class="st3" d="M11.1,54.3c-0.6-3.6-3.2-4.7-3.2-4.7l0.2-0.5c0,0,0.8,0.3,1.6,1.1c0.7,0.7,1.7,2,2,4.1L11.1,54.3z"/>
	</g>
	<g>
		<rect x="20.6" y="49.1" class="st3" width="1.1" height="17.4"/>
	</g>
	<g>
		<rect x="17.4" y="49.2" class="st3" width="1.1" height="17.4"/>
	</g>
	<g>
		<path class="st3" d="M18.1,54.3l-0.6-0.1c0.3-2.1,1.3-3.4,2-4.1c0.8-0.8,1.5-1.1,1.6-1.1l0.2,0.5l-0.1-0.3l0.1,0.3
			c0,0-0.7,0.3-1.4,1C19,51.6,18.4,52.8,18.1,54.3z"/>
	</g>
	<g>
		<path class="st3" d="M17.6,54.1c0-3-2.4-4.3-2.9-4.5c-2.6,1.1-3,4.2-3,4.3l-0.6-0.1c0,0,0.1-0.9,0.6-2c0.6-1.4,1.6-2.4,2.9-2.8
			l0.1,0l0.1,0c0,0,0.8,0.4,1.7,1.2c0.8,0.7,1.7,2,1.7,3.9L17.6,54.1z"/>
	</g>
	<g>
		<rect x="8.5" y="67.8" class="st3" width="12.3" height="1.4"/>
	</g>
	<g>
		<polygon class="st3" points="8.5,69.7 14.6,72.4 20.8,69.7 		"/>
	</g>
	<g>
		<g>
			<path class="st3" d="M11,39.1c0.4-0.5,0.9-1,1.3-1.5c0.9-0.9,1.7-1.8,2-2.8c0,0,0,0,0-0.1c-2,2-6.7,3.8-7.8,6.5
				C4.9,45.6,8.2,48,8.2,48h3C9.2,45.5,9.1,41.7,11,39.1z"/>
		</g>
		<g>
			<path class="st3" d="M22.7,41.3c-1.2-2.5-5.9-4.6-7.7-6.5c0,0,0,0,0,0c0.3,1.1,1.1,1.9,2,2.8c0.5,0.5,1,1,1.3,1.5
				c1.9,2.6,1.8,6.3-0.1,8.8h2.9C21.1,48,24.7,45.5,22.7,41.3z"/>
		</g>
		<g>
			<path class="st3" d="M17.8,39.5c-0.4-0.5-0.8-1-1.3-1.5c-0.7-0.7-1.4-1.5-1.9-2.4c-0.4,0.9-1.2,1.7-1.9,2.4
				c-0.5,0.5-0.9,1-1.3,1.5c-1.8,2.4-1.7,5.9,0.2,8.2L11.3,48l6.7,0l-0.3-0.3C19.5,45.4,19.6,41.9,17.8,39.5z"/>
		</g>
		<g>
			<path class="st3" d="M11.2,48.1l0.1-0.1L11.2,48.1C11.2,48,11.2,48,11.2,48.1z"/>
		</g>
		<g>
			<path class="st3" d="M18.1,48.1C18.1,48,18.1,48,18.1,48.1L18,48L18.1,48.1z"/>
		</g>
	</g>
	<g>
		<rect x="6.3" y="47.2" class="st3" width="16.6" height="1.1"/>
	</g>
	<g>
		<path class="st3" d="M14.7,34.5c-0.7,0-1.2-0.5-1.2-1.2c0-0.7,0.5-1.2,1.2-1.2s1.2,0.5,1.2,1.2C15.9,33.9,15.4,34.5,14.7,34.5z
			 M14.7,32.6c-0.4,0-0.7,0.3-0.7,0.7c0,0.4,0.3,0.7,0.7,0.7c0.4,0,0.7-0.3,0.7-0.7C15.3,32.9,15.1,32.6,14.7,32.6z"/>
	</g>
	<g>
		<circle class="st3" cx="14.7" cy="31.4" r="0.7"/>
	</g>
	<g>
		<path class="st3" d="M14.7,74.2c-0.6,0-1-0.5-1-1c0-0.6,0.5-1,1-1s1,0.5,1,1C15.7,73.7,15.2,74.2,14.7,74.2z M14.7,72.7
			c-0.2,0-0.5,0.2-0.5,0.5c0,0.2,0.2,0.5,0.5,0.5c0.2,0,0.5-0.2,0.5-0.5C15.1,72.9,14.9,72.7,14.7,72.7z"/>
	</g>
	<g>
		<rect x="14.4" y="73.9" class="st3" width="0.6" height="3.7"/>
	</g>
</g>
<g>
	<g>
		<rect x="60.7" y="17.9" class="st3" width="12.5" height="0.3"/>
	</g>
	<g>
		<rect x="61.1" y="17.1" class="st3" width="11.8" height="0.6"/>
	</g>
	<g>
		<rect x="62.6" y="26" class="st3" width="8.9" height="0.6"/>
	</g>
	<g>
		<path class="st3" d="M67,30.6c-0.3,0-0.5-0.2-0.5-0.5c0-0.3,0.2-0.5,0.5-0.5c0.3,0,0.5,0.2,0.5,0.5C67.5,30.3,67.3,30.6,67,30.6z
			 M67,29.8c-0.1,0-0.2,0.1-0.2,0.2c0,0.1,0.1,0.2,0.2,0.2c0.1,0,0.2-0.1,0.2-0.2C67.2,29.9,67.1,29.8,67,29.8z"/>
	</g>
	<g>
		<path class="st3" d="M69.6,13.9c-2.3-0.7-2.5-1.5-2.6-1.5l0,0l0,0l0,0l0,0c0,0-0.3,0.8-2.6,1.5c-2.7,0.8-3,2.8-2.9,2.8
			c0.1,0,5.2,0,5.4,0l0,0c0.2,0,5.3,0,5.4,0C72.5,16.8,72.3,14.7,69.6,13.9z"/>
	</g>
	<g>
		<g>
			
				<rect x="62.5" y="18.1" transform="matrix(0.9876 -0.1572 0.1572 0.9876 -2.715 10.1395)" class="st3" width="0.6" height="8.3"/>
		</g>
		<g>
			
				<rect x="65.2" y="18.2" transform="matrix(0.9988 -4.911958e-02 4.911958e-02 0.9988 -1.0133 3.2427)" class="st3" width="0.6" height="8.2"/>
		</g>
		<g>
			
				<rect x="67.1" y="21.9" transform="matrix(0.1572 -0.9876 0.9876 0.1572 38.1088 89.1137)" class="st3" width="8.3" height="0.6"/>
		</g>
		<g>
			
				<rect x="64.5" y="21.9" transform="matrix(4.911866e-02 -0.9988 0.9988 4.911866e-02 42.9687 89.6085)" class="st3" width="8.2" height="0.6"/>
		</g>
	</g>
	<g>
		<rect x="63" y="26.8" class="st3" width="8.1" height="0.3"/>
	</g>
	<g>
		<rect x="63.4" y="27" class="st3" width="7.2" height="0.8"/>
	</g>
	<g>
		<polygon class="st3" points="63.4,28.1 67,29.7 70.6,28.1 		"/>
	</g>
	<g>
		<rect x="66.8" y="30.4" class="st3" width="0.3" height="1.9"/>
	</g>
	<g>
		<path class="st3" d="M67,12.3c-0.4,0-0.6-0.3-0.6-0.6S66.7,11,67,11s0.6,0.3,0.6,0.6S67.4,12.3,67,12.3z M67,11.3
			c-0.2,0-0.3,0.2-0.3,0.3c0,0.2,0.2,0.3,0.3,0.3c0.2,0,0.3-0.2,0.3-0.3C67.4,11.5,67.2,11.3,67,11.3z"/>
	</g>
	<g>
		<circle class="st3" cx="67" cy="10.7" r="0.4"/>
	</g>
</g>
<g>
	<path class="st4" d="M75.7,9.1c0-1.3,1-2.4,2.2-2.6c-0.3-0.1-0.6-0.1-0.9-0.1c-1.8,0-3.3,1.5-3.3,3.3c0,1.8,1.5,3.3,3.3,3.3
		c1.2,0,2.3-0.7,2.9-1.7c-0.4,0.3-1,0.5-1.5,0.5C76.9,11.7,75.7,10.6,75.7,9.1z"/>
</g>
<polygon class="st2" points="58.9,38.9 59.9,41.7 62.8,41.8 60.5,43.6 61.3,46.5 58.9,44.8 56.4,46.5 57.3,43.6 54.9,41.8 
	57.9,41.7 "/>
<polygon class="st5" points="54,14 54.6,15.7 56.4,15.8 55,16.9 55.5,18.6 54,17.6 52.5,18.6 53,16.9 51.6,15.8 53.4,15.7 "/>
<polygon class="st5" points="84.5,14 85.1,15.7 86.9,15.8 85.5,16.9 86,18.6 84.5,17.6 83,18.6 83.5,16.9 82.1,15.8 83.9,15.7 "/>
<polygon class="st3" points="38.2,4.3 38.8,5.8 40.4,5.8 39.1,6.9 39.6,8.4 38.2,7.5 36.9,8.4 37.3,6.9 36,5.9 37.7,5.8 "/>
<g>
	<polygon class="st2" points="30.9,47.8 30.5,47.8 30.5,32.4 30.8,32.4 	"/>
</g>
<polygon class="st2" points="89.8,1.7 90.3,3.2 92,3.3 90.7,4.3 91.2,5.8 89.8,4.9 88.4,5.8 88.9,4.3 87.6,3.3 89.2,3.2 "/>
<polygon class="st4" points="8,26.4 8.7,28.2 10.5,28.2 9.1,29.4 9.6,31.1 8,30.1 6.5,31.1 7,29.4 5.6,28.2 7.4,28.2 "/>
<g>
	<g>
		<rect x="19.9" y="18.8" class="st5" width="16.5" height="0.4"/>
	</g>
	<g>
		<rect x="20.4" y="17.7" class="st5" width="15.5" height="0.7"/>
	</g>
	<g>
		<rect x="22.3" y="29.5" class="st5" width="11.7" height="0.7"/>
	</g>
	<g>
		<path class="st5" d="M28.1,35.5c-0.4,0-0.7-0.3-0.7-0.7s0.3-0.7,0.7-0.7s0.7,0.3,0.7,0.7C28.8,35.2,28.5,35.5,28.1,35.5z
			 M28.1,34.5c-0.2,0-0.3,0.1-0.3,0.3s0.1,0.3,0.3,0.3s0.3-0.1,0.3-0.3C28.4,34.7,28.3,34.5,28.1,34.5z"/>
	</g>
	<g>
		<path class="st5" d="M31.5,13.6c-3-0.8-3.3-1.9-3.4-2l0,0l0,0l0,0l0,0c0,0-0.3,1.1-3.4,2c-3.6,1-3.9,3.7-3.8,3.7s6.9,0,7.1,0l0,0
			c0.2,0,6.9,0,7.1,0C35.4,17.3,35.1,14.6,31.5,13.6z"/>
	</g>
	<g>
		<g>
			
				<rect x="22.1" y="19.1" transform="matrix(0.9876 -0.1572 0.1572 0.9876 -3.5801 3.8465)" class="st5" width="0.8" height="10.9"/>
		</g>
		<g>
			
				<rect x="25.7" y="19.2" transform="matrix(0.9988 -4.911958e-02 4.911958e-02 0.9988 -1.1743 1.3117)" class="st5" width="0.8" height="10.7"/>
		</g>
		<g>
			
				<rect x="28.3" y="24.2" transform="matrix(0.1572 -0.9876 0.9876 0.1572 4.1932 54.0048)" class="st5" width="10.9" height="0.8"/>
		</g>
		<g>
			
				<rect x="24.8" y="24.2" transform="matrix(4.911866e-02 -0.9988 0.9988 4.911866e-02 4.1639 53.4608)" class="st5" width="10.7" height="0.8"/>
		</g>
	</g>
	<g>
		<rect x="22.8" y="30.6" class="st5" width="10.6" height="0.4"/>
	</g>
	<g>
		<rect x="23.4" y="30.8" class="st5" width="9.5" height="1.1"/>
	</g>
	<g>
		<polygon class="st5" points="23.4,32.3 28.1,34.4 32.9,32.3 		"/>
	</g>
	<g>
		<rect x="27.9" y="35.3" class="st5" width="0.4" height="2.5"/>
	</g>
	<g>
		<path class="st5" d="M28.2,11.4c-0.5,0-0.8-0.4-0.8-0.8c0-0.5,0.4-0.8,0.8-0.8c0.5,0,0.8,0.4,0.8,0.8C29,11.1,28.6,11.4,28.2,11.4
			z M28.2,10.2c-0.2,0-0.4,0.2-0.4,0.4c0,0.2,0.2,0.4,0.4,0.4s0.4-0.2,0.4-0.4C28.6,10.4,28.4,10.2,28.2,10.2z"/>
	</g>
	<g>
		<circle class="st5" cx="28.2" cy="9.3" r="0.5"/>
	</g>
</g>
<polygon class="st2" points="30.7,47.1 31.3,48.7 32.9,48.7 31.6,49.7 32.1,51.3 30.7,50.4 29.4,51.3 29.8,49.7 28.5,48.7 
	30.2,48.7 "/>
<g>
	<g>
		<rect x="7.5" y="49.1" class="st3" width="1.1" height="17.4"/>
	</g>
	<g>
		<rect x="10.8" y="49.1" class="st3" width="1.1" height="17.4"/>
	</g>
	<g>
		<rect x="6.8" y="48.8" class="st3" width="15.7" height="0.6"/>
	</g>
	<g>
		<rect x="7.8" y="67.5" class="st3" width="13.7" height="0.6"/>
	</g>
	<g>
		<rect x="6.6" y="66.5" class="st3" width="16.1" height="0.6"/>
	</g>
	<g>
		<path class="st3" d="M11.1,54.3c-0.6-3.6-3.2-4.7-3.2-4.7l0.2-0.5c0,0,0.8,0.3,1.6,1.1c0.7,0.7,1.7,2,2,4.1L11.1,54.3z"/>
	</g>
	<g>
		<rect x="20.6" y="49.1" class="st3" width="1.1" height="17.4"/>
	</g>
	<g>
		<path class="st3" d="M18.1,54.3l-0.6-0.1c0.3-2.1,1.3-3.4,2-4.1c0.8-0.8,1.5-1.1,1.6-1.1l0.2,0.5l-0.1-0.3l0.1,0.3
			c0,0-0.7,0.3-1.4,1C19,51.6,18.4,52.8,18.1,54.3z"/>
	</g>
	<g>
		<path class="st3" d="M17.6,54.1c0-3-2.4-4.3-2.9-4.5c-2.6,1.1-3,4.2-3,4.3l-0.6-0.1c0,0,0.1-0.9,0.6-2c0.6-1.4,1.6-2.4,2.9-2.8
			l0.1,0l0.1,0c0,0,0.8,0.4,1.7,1.2c0.8,0.7,1.7,2,1.7,3.9L17.6,54.1z"/>
	</g>
	<g>
		<rect x="8.5" y="67.8" class="st3" width="12.3" height="1.4"/>
	</g>
	<g>
		<polygon class="st3" points="8.5,69.7 14.6,72.4 20.8,69.7 		"/>
	</g>
	<g>
		<g>
			<path class="st3" d="M11,39.1c0.4-0.5,0.9-1,1.3-1.5c0.9-0.9,1.7-1.8,2-2.8c0,0,0,0,0-0.1c-2,2-6.7,3.8-7.8,6.5
				C4.9,45.6,8.2,48,8.2,48h3C9.2,45.5,9.1,41.7,11,39.1z"/>
		</g>
		<g>
			<path class="st3" d="M22.7,41.3c-1.2-2.5-5.9-4.6-7.7-6.5c0,0,0,0,0,0c0.3,1.1,1.1,1.9,2,2.8c0.5,0.5,1,1,1.3,1.5
				c1.9,2.6,1.8,6.3-0.1,8.8h2.9C21.1,48,24.7,45.5,22.7,41.3z"/>
		</g>
		<g>
			<path class="st3" d="M17.8,39.5c-0.4-0.5-0.8-1-1.3-1.5c-0.7-0.7-1.4-1.5-1.9-2.4c-0.4,0.9-1.2,1.7-1.9,2.4
				c-0.5,0.5-0.9,1-1.3,1.5c-1.8,2.4-1.7,5.9,0.2,8.2L11.3,48l6.7,0l-0.3-0.3C19.5,45.4,19.6,41.9,17.8,39.5z"/>
		</g>
		<g>
			<path class="st3" d="M11.2,48.1l0.1-0.1L11.2,48.1C11.2,48,11.2,48,11.2,48.1z"/>
		</g>
		<g>
			<path class="st3" d="M18.1,48.1C18.1,48,18.1,48,18.1,48.1L18,48L18.1,48.1z"/>
		</g>
	</g>
	<g>
		<rect x="6.3" y="47.2" class="st3" width="16.6" height="1.1"/>
	</g>
	<g>
		<path class="st3" d="M14.7,34.5c-0.7,0-1.2-0.5-1.2-1.2c0-0.7,0.5-1.2,1.2-1.2s1.2,0.5,1.2,1.2C15.9,33.9,15.4,34.5,14.7,34.5z
			 M14.7,32.6c-0.4,0-0.7,0.3-0.7,0.7c0,0.4,0.3,0.7,0.7,0.7c0.4,0,0.7-0.3,0.7-0.7C15.3,32.9,15.1,32.6,14.7,32.6z"/>
	</g>
	<g>
		<circle class="st3" cx="14.7" cy="31.4" r="0.7"/>
	</g>
	<g>
		<path class="st3" d="M14.7,74.2c-0.6,0-1-0.5-1-1c0-0.6,0.5-1,1-1s1,0.5,1,1C15.7,73.7,15.2,74.2,14.7,74.2z M14.7,72.7
			c-0.2,0-0.5,0.2-0.5,0.5c0,0.2,0.2,0.5,0.5,0.5c0.2,0,0.5-0.2,0.5-0.5C15.1,72.9,14.9,72.7,14.7,72.7z"/>
	</g>
	<g>
		<rect x="14.4" y="73.9" class="st3" width="0.6" height="3.7"/>
	</g>
</g>
<g>
	<g>
		<rect x="60.7" y="17.9" class="st3" width="12.5" height="0.3"/>
	</g>
	<g>
		<rect x="61.1" y="17.1" class="st3" width="11.8" height="0.6"/>
	</g>
	<g>
		<rect x="62.6" y="26" class="st3" width="8.9" height="0.6"/>
	</g>
	<g>
		<path class="st3" d="M67,30.6c-0.3,0-0.5-0.2-0.5-0.5c0-0.3,0.2-0.5,0.5-0.5c0.3,0,0.5,0.2,0.5,0.5C67.5,30.3,67.3,30.6,67,30.6z
			 M67,29.8c-0.1,0-0.2,0.1-0.2,0.2c0,0.1,0.1,0.2,0.2,0.2c0.1,0,0.2-0.1,0.2-0.2C67.2,29.9,67.1,29.8,67,29.8z"/>
	</g>
	<g>
		<path class="st3" d="M69.6,13.9c-2.3-0.7-2.5-1.5-2.6-1.5l0,0l0,0l0,0l0,0c0,0-0.3,0.8-2.6,1.5c-2.7,0.8-3,2.8-2.9,2.8
			c0.1,0,5.2,0,5.4,0l0,0c0.2,0,5.3,0,5.4,0C72.5,16.8,72.3,14.7,69.6,13.9z"/>
	</g>
	<g>
		<g>
			
				<rect x="62.5" y="18.1" transform="matrix(0.9876 -0.1572 0.1572 0.9876 -2.715 10.1395)" class="st3" width="0.6" height="8.3"/>
		</g>
		<g>
			
				<rect x="65.2" y="18.2" transform="matrix(0.9988 -4.911958e-02 4.911958e-02 0.9988 -1.0133 3.2427)" class="st3" width="0.6" height="8.2"/>
		</g>
		<g>
			
				<rect x="67.1" y="21.9" transform="matrix(0.1572 -0.9876 0.9876 0.1572 38.1088 89.1137)" class="st3" width="8.3" height="0.6"/>
		</g>
		<g>
			
				<rect x="64.5" y="21.9" transform="matrix(4.911866e-02 -0.9988 0.9988 4.911866e-02 42.9687 89.6085)" class="st3" width="8.2" height="0.6"/>
		</g>
	</g>
	<g>
		<rect x="63" y="26.8" class="st3" width="8.1" height="0.3"/>
	</g>
	<g>
		<rect x="63.4" y="27" class="st3" width="7.2" height="0.8"/>
	</g>
	<g>
		<polygon class="st3" points="63.4,28.1 67,29.7 70.6,28.1 		"/>
	</g>
	<g>
		<rect x="66.8" y="30.4" class="st3" width="0.3" height="1.9"/>
	</g>
	<g>
		<path class="st3" d="M67,12.3c-0.4,0-0.6-0.3-0.6-0.6S66.7,11,67,11s0.6,0.3,0.6,0.6S67.4,12.3,67,12.3z M67,11.3
			c-0.2,0-0.3,0.2-0.3,0.3c0,0.2,0.2,0.3,0.3,0.3c0.2,0,0.3-0.2,0.3-0.3C67.4,11.5,67.2,11.3,67,11.3z"/>
	</g>
	<g>
		<circle class="st3" cx="67" cy="10.7" r="0.4"/>
	</g>
</g>
<g>
	<path class="st4" d="M75.7,9.1c0-1.3,1-2.4,2.2-2.6c-0.3-0.1-0.6-0.1-0.9-0.1c-1.8,0-3.3,1.5-3.3,3.3c0,1.8,1.5,3.3,3.3,3.3
		c1.2,0,2.3-0.7,2.9-1.7c-0.4,0.3-1,0.5-1.5,0.5C76.9,11.7,75.7,10.6,75.7,9.1z"/>
</g>
<polygon class="st2" points="58.9,38.9 59.9,41.7 62.8,41.8 60.5,43.6 61.3,46.5 58.9,44.8 56.4,46.5 57.3,43.6 54.9,41.8 
	57.9,41.7 "/>
<polygon class="st5" points="54,14 54.6,15.7 56.4,15.8 55,16.9 55.5,18.6 54,17.6 52.5,18.6 53,16.9 51.6,15.8 53.4,15.7 "/>
<polygon class="st5" points="84.5,14 85.1,15.7 86.9,15.8 85.5,16.9 86,18.6 84.5,17.6 83,18.6 83.5,16.9 82.1,15.8 83.9,15.7 "/>
<polygon class="st3" points="38.2,4.3 38.8,5.8 40.4,5.8 39.1,6.9 39.6,8.4 38.2,7.5 36.9,8.4 37.3,6.9 36,5.9 37.7,5.8 "/>
<g>
	<polygon class="st2" points="30.9,47.8 30.5,47.8 30.5,32.4 30.8,32.4 	"/>
</g>
<polygon class="st2" points="89.8,1.7 90.3,3.2 92,3.3 90.7,4.3 91.2,5.8 89.8,4.9 88.4,5.8 88.9,4.3 87.6,3.3 89.2,3.2 "/>
<polygon class="st4" points="8,26.4 8.7,28.2 10.5,28.2 9.1,29.4 9.6,31.1 8,30.1 6.5,31.1 7,29.4 5.6,28.2 7.4,28.2 "/>
<g>
	<g>
		<rect x="19.9" y="18.8" class="st5" width="16.5" height="0.4"/>
	</g>
	<g>
		<rect x="20.4" y="17.7" class="st5" width="15.5" height="0.7"/>
	</g>
	<g>
		<rect x="22.3" y="29.5" class="st5" width="11.7" height="0.7"/>
	</g>
	<g>
		<path class="st5" d="M28.1,35.5c-0.4,0-0.7-0.3-0.7-0.7s0.3-0.7,0.7-0.7s0.7,0.3,0.7,0.7C28.8,35.2,28.5,35.5,28.1,35.5z
			 M28.1,34.5c-0.2,0-0.3,0.1-0.3,0.3s0.1,0.3,0.3,0.3s0.3-0.1,0.3-0.3C28.4,34.7,28.3,34.5,28.1,34.5z"/>
	</g>
	<g>
		<path class="st5" d="M31.5,13.6c-3-0.8-3.3-1.9-3.4-2l0,0l0,0l0,0l0,0c0,0-0.3,1.1-3.4,2c-3.6,1-3.9,3.7-3.8,3.7s6.9,0,7.1,0l0,0
			c0.2,0,6.9,0,7.1,0C35.4,17.3,35.1,14.6,31.5,13.6z"/>
	</g>
	<g>
		<g>
			
				<rect x="22.1" y="19.1" transform="matrix(0.9876 -0.1572 0.1572 0.9876 -3.5801 3.8465)" class="st5" width="0.8" height="10.9"/>
		</g>
		<g>
			
				<rect x="25.7" y="19.2" transform="matrix(0.9988 -4.911958e-02 4.911958e-02 0.9988 -1.1743 1.3117)" class="st5" width="0.8" height="10.7"/>
		</g>
		<g>
			
				<rect x="28.3" y="24.2" transform="matrix(0.1572 -0.9876 0.9876 0.1572 4.1932 54.0048)" class="st5" width="10.9" height="0.8"/>
		</g>
		<g>
			
				<rect x="24.8" y="24.2" transform="matrix(4.911866e-02 -0.9988 0.9988 4.911866e-02 4.1639 53.4608)" class="st5" width="10.7" height="0.8"/>
		</g>
	</g>
	<g>
		<rect x="22.8" y="30.6" class="st5" width="10.6" height="0.4"/>
	</g>
	<g>
		<rect x="23.4" y="30.8" class="st5" width="9.5" height="1.1"/>
	</g>
	<g>
		<polygon class="st5" points="23.4,32.3 28.1,34.4 32.9,32.3 		"/>
	</g>
	<g>
		<rect x="27.9" y="35.3" class="st5" width="0.4" height="2.5"/>
	</g>
	<g>
		<path class="st5" d="M28.2,11.4c-0.5,0-0.8-0.4-0.8-0.8c0-0.5,0.4-0.8,0.8-0.8c0.5,0,0.8,0.4,0.8,0.8C29,11.1,28.6,11.4,28.2,11.4
			z M28.2,10.2c-0.2,0-0.4,0.2-0.4,0.4c0,0.2,0.2,0.4,0.4,0.4s0.4-0.2,0.4-0.4C28.6,10.4,28.4,10.2,28.2,10.2z"/>
	</g>
	<g>
		<circle class="st5" cx="28.2" cy="9.3" r="0.5"/>
	</g>
</g>
<g>
	<path class="st6" d="M15.9,39.6c0,0.4,0.3,0.7,0.7,0.7c0.4,0,0.7-0.3,0.7-0.7c0-0.4-0.3-0.7-0.7-0.7S15.9,39.2,15.9,39.6z"/>
	<path class="st6" d="M4.5,18c0,2.2,1.5,4,3.4,4.6l0-9.2C5.9,14,4.5,15.9,4.5,18z"/>
	<path class="st6" d="M8.5,13.3c-0.1,0-0.2,0.1-0.3,0.1l0,9.3c0.2,0.1,0.5,0.1,0.7,0.1L8.8,0H8.1l0,13.2C8.3,13.2,8.4,13.2,8.5,13.3
		z"/>
	<path class="st6" d="M85.1,9.9V0h-0.5v10.4C84.8,10.2,84.9,10,85.1,9.9z"/>
	<path class="st6" d="M52.3,24.3c0,0.4,0.3,0.6,0.6,0.6c0.4,0,0.6-0.3,0.6-0.6c0-0.4-0.3-0.6-0.6-0.6C52.6,23.7,52.3,24,52.3,24.3z"
		/>
	<path class="st6" d="M31.5,13.9c0,0.3,0.2,0.5,0.5,0.5c0.3,0,0.5-0.2,0.5-0.5c0-0.3-0.2-0.5-0.5-0.5C31.7,13.4,31.5,13.6,31.5,13.9
		z"/>
	<polygon class="st6" points="60.6,19.7 61.1,18.3 61.1,0 59,0 59,19.7 	"/>
	<path class="st6" d="M6.8,13c0.4,0,0.7,0,1.1,0.1L7.9,0h-4v13.8C4.7,13.3,5.7,13,6.8,13z"/>
	<path class="st6" d="M75.8,15c0,0.2,0.2,0.4,0.4,0.4c0.2,0,0.4-0.2,0.4-0.4s-0.2-0.4-0.4-0.4C76,14.7,75.8,14.8,75.8,15z"/>
	<path class="st1" d="M52.8,21.8c-0.3,0.1-0.5,0.4-0.5,0.7c0,0.3,0.2,0.6,0.5,0.7c-0.6,0.1-1,0.6-1,1.2c0,0.7,0.5,1.2,1.2,1.2
		c0.7,0,1.2-0.5,1.2-1.2c0-0.6-0.4-1.1-1-1.2c0.3-0.1,0.5-0.4,0.5-0.7c0-0.3-0.2-0.6-0.5-0.7V0h-0.4V21.8z M53.6,24.3
		c0,0.4-0.3,0.6-0.6,0.6c-0.4,0-0.6-0.3-0.6-0.6s0.3-0.6,0.6-0.6C53.3,23.7,53.6,24,53.6,24.3z"/>
	<path class="st1" d="M16.5,36.7c-0.4,0.1-0.7,0.4-0.7,0.8c0,0.4,0.2,0.7,0.6,0.8c-0.7,0.1-1.1,0.7-1.1,1.4c0,0.8,0.6,1.4,1.4,1.4
		c0.8,0,1.4-0.6,1.4-1.4c0-0.7-0.5-1.3-1.1-1.4c0.3-0.1,0.6-0.4,0.6-0.8c0-0.4-0.2-0.7-0.6-0.8V0h-0.4V36.7z M17.3,39.6
		c0,0.4-0.3,0.7-0.7,0.7c-0.4,0-0.7-0.3-0.7-0.7c0-0.4,0.3-0.7,0.7-0.7S17.3,39.2,17.3,39.6z"/>
	<path class="st1" d="M76,13.6c-0.1,0.1-0.2,0.2-0.2,0.4c0,0.2,0.1,0.4,0.3,0.4c-0.3,0.1-0.6,0.4-0.6,0.7c0,0.4,0.3,0.7,0.7,0.7
		s0.7-0.3,0.7-0.7c0-0.4-0.3-0.7-0.6-0.7c0.2-0.1,0.3-0.2,0.3-0.4c0-0.2-0.1-0.3-0.2-0.4V0H76V13.6z M76.6,15c0,0.2-0.2,0.4-0.4,0.4
		c-0.2,0-0.4-0.2-0.4-0.4s0.2-0.4,0.4-0.4C76.4,14.7,76.6,14.8,76.6,15z"/>
	<path class="st1" d="M85.1,9.9c-0.2,0.1-0.3,0.3-0.5,0.5v4.5h-0.3c0.7,1,1.8,1.7,3.1,1.7c1.4,0,2.6-0.8,3.3-1.9
		c-0.5,0.4-1.1,0.6-1.7,0.6c-1.7,0-3-1.3-3-3c0-1.5,1.1-2.7,2.5-2.9c-0.3-0.1-0.7-0.1-1-0.1c-0.7,0-1.4,0.2-2,0.6V0h-0.4V9.9z"/>
	<path class="st1" d="M83.7,12.8c0,0.7,0.2,1.4,0.6,2v-3.9C84,11.4,83.7,12.1,83.7,12.8z"/>
	<polygon class="st1" points="66.9,0 66.6,0 66.6,46.8 65.8,49.3 62.4,49.4 65,51.4 64.1,54.7 66.9,52.8 69.7,54.7 68.7,51.4 
		71.4,49.4 68,49.3 67,46.5 67,10.7 66.9,10.7 	"/>
	<polygon class="st1" points="58.6,19.8 58.6,19.8 58.6,19.7 	"/>
	<polygon class="st1" points="61.1,18.3 60.6,19.7 59,19.7 59,20.1 60.2,21 59.6,23 61.3,21.8 63,23 62.4,21 64.1,19.8 62,19.7 
		61.5,18.3 61.5,0 61.1,0 	"/>
	<polygon class="st1" points="95.8,18.3 95.4,19.7 93.3,19.8 94.9,21 94.3,23 96.1,21.8 97.7,23 97.2,21 98.8,19.8 96.7,19.7 
		96.2,18.3 96.2,0 95.8,0 	"/>
	<polygon class="st1" points="43.2,7.2 42.7,8.4 40.9,8.5 42.4,9.6 41.8,11.4 43.4,10.3 44.9,11.4 44.4,9.6 45.9,8.5 44,8.4 
		43.5,7.1 43.5,0 43.1,0 	"/>
	<polygon class="st1" points="101.9,4.2 101.5,5.5 99.6,5.5 101.1,6.7 100.5,8.5 102.1,7.4 103.6,8.4 103.1,6.7 104.6,5.5 
		102.7,5.5 102.2,4.2 102.2,0 101.9,0 	"/>
	<path class="st1" d="M4.5,18c0-2.2,1.4-4,3.4-4.6l0-0.3C7.5,13.1,7.2,13,6.8,13c-1.1,0-2.1,0.3-3,0.8V0H3.4v14.1
		c-1.6,1.1-2.7,2.9-2.7,5c0,3.3,2.7,6,6,6c0.4,0,0.7,0,1.1-0.1l0-2.3C5.9,22,4.5,20.2,4.5,18z"/>
	<path class="st1" d="M8.9,22.8c-0.2,0-0.5-0.1-0.7-0.1l0,2.2c0.2-0.1,0.5-0.1,0.7-0.2l0,7.6l-0.5,1.6l-2.1,0.1l1.7,1.3l-0.6,2
		L9.1,36l1.8,1.2l-0.6-2l1.7-1.3l-2.1-0.1l-0.6-1.6l0-7.7c1.2-0.5,2.2-1.5,2.9-2.6c-0.8,0.6-1.7,0.9-2.8,0.9c0,0-0.1,0-0.1,0L9.1,0
		H8.8L8.9,22.8z"/>
	<path class="st1" d="M8.5,13.3c-0.1,0-0.2,0-0.3-0.1l0,0.2C8.3,13.3,8.4,13.3,8.5,13.3z"/>
	<path class="st1" d="M31.7,11.9c-0.2,0.1-0.3,0.3-0.3,0.5c0,0.3,0.2,0.5,0.4,0.5C31.4,13,31,13.4,31,13.9c0,0.5,0.4,1,0.9,1
		c0.5,0,0.9-0.4,0.9-0.9c0-0.5-0.3-0.9-0.8-0.9c0.2-0.1,0.4-0.3,0.4-0.5c0-0.3-0.2-0.5-0.4-0.5V0h-0.4V11.9z M32.5,13.9
		c0,0.3-0.2,0.5-0.5,0.5c-0.3,0-0.5-0.2-0.5-0.5c0-0.3,0.2-0.5,0.5-0.5C32.2,13.4,32.5,13.6,32.5,13.9z"/>
	<rect x="47.3" class="st4" width="0.2" height="33.3"/>
	<rect x="47.2" class="st4" width="0.2" height="33.3"/>
	<rect x="53.8" class="st5" width="0.4" height="14.8"/>
	<rect x="58.6" class="st7" width="0.2" height="19.7"/>
	
		<rect x="58.8" transform="matrix(0.9996 -2.917945e-02 2.917945e-02 0.9996 -0.2629 1.723)" class="st7" width="0.2" height="19.7"/>
	<polygon class="st7" points="58.8,41.4 59,41.4 59,20.1 58.8,19.9 	"/>
	<polygon class="st7" points="58.6,19.8 58.6,41.4 58.8,41.4 58.8,19.9 	"/>
	<polygon class="st7" points="58.8,19.7 58.8,19.9 59,20.1 59,19.7 	"/>
	<polygon class="st7" points="58.8,19.7 58.6,19.7 58.6,19.8 58.8,19.9 	"/>
	<rect x="67" class="st3" width="0.2" height="10.7"/>
	<rect x="67" class="st3" width="0" height="10.7"/>
	<rect x="66.9" class="st3" width="0.2" height="10.7"/>
	<rect x="14.6" class="st3" width="0.2" height="30.9"/>
	<rect x="14.7" class="st3" width="0.2" height="30.9"/>
	<path class="st5" d="M84.7,0h-0.4v10.9c0.1-0.2,0.2-0.3,0.4-0.5V0z"/>
	<path class="st5" d="M84.3,14.8L84.3,14.8C84.3,14.8,84.3,14.8,84.3,14.8L84.3,14.8z"/>
	<path class="st5" d="M84.7,10.4c-0.1,0.2-0.2,0.3-0.4,0.5v3.9c0,0,0,0,0,0h0.3V10.4z"/>
	<polygon class="st3" points="38,5 38.4,5 38.3,0 38,0 	"/>
	<polygon class="st2" points="89.6,2.4 89.9,2.4 89.9,0 89.6,0 	"/>
	<path class="st4" d="M7.9,27.6h0.3l0-2.8c-0.1,0-0.2,0.1-0.3,0.1L7.9,27.6z"/>
	<path class="st4" d="M7.9,13.4l0,9.2c0.1,0,0.2,0,0.3,0.1l0-9.3C8.1,13.4,8,13.4,7.9,13.4z"/>
	<path class="st4" d="M8.1,13.2L8.1,0H7.9l0,13.2C8,13.2,8.1,13.2,8.1,13.2z"/>
	<path class="st4" d="M8.1,13.2c-0.1,0-0.2,0-0.3-0.1l0,0.3c0.1,0,0.2,0,0.3-0.1L8.1,13.2z"/>
	<path class="st4" d="M7.9,22.6l0,2.3c0.1,0,0.2-0.1,0.3-0.1l0-2.2C8.1,22.7,8,22.7,7.9,22.6z"/>
	<rect x="74.9" class="st4" width="0.4" height="10.4"/>
	<rect x="28.1" class="st5" width="0.2" height="9.3"/>
	<rect x="28" class="st5" width="0.2" height="9.3"/>
	<rect x="3" class="st7" width="0.2" height="13.4"/>
	<rect x="3.2" class="st7" width="0.2" height="13.4"/>
</g>
</svg>
