<svg xmlns="http://www.w3.org/2000/svg" xmlns:xlink="http://www.w3.org/1999/xlink" width="179px" height="47px" viewBox="0 0 179 47" version="1.1">
    <!-- Generator: Sketch 48.2 (47327) - http://www.bohemiancoding.com/sketch -->
    <title>logo_samiinour</title>
    <desc>Created with Sketch.</desc>
    <defs>
        <path d="M7.99052632,36.4457184 C4.32982456,32.5754466 2.19403509,27.4802233 1.97614035,22.0979806 L1.9754386,22.0753495 L1.96070175,22.0595437 C0.671929825,20.6653981 -0.0242105263,18.8391068 0.000701754386,16.9176214 C0.0249122807,14.9918252 0.770877193,13.1813398 2.10140351,11.819165 C2.89719298,11.0044466 3.83894737,10.4074175 4.90070175,10.0449612 L4.92140351,10.0381359 L4.9322807,10.0194563 C5.84596491,8.43779612 6.95894737,6.97036893 8.24070175,5.65812621 C10.7017544,3.13817476 13.7508772,1.2533301 17.0582456,0.206553398 L17.3449123,0.116029126 L19.9796491,10.1929612 L19.7252632,10.282767 C18.1224561,10.8489029 16.6403509,11.7979709 15.4389474,13.0279515 C14.9161404,13.562835 14.4435088,14.1519612 14.0340351,14.7784466 L14.0185965,14.8021553 L14.0270175,14.8294563 C14.8203509,17.4456796 14.1389474,20.2731262 12.2491228,22.2079029 L12.1894737,22.267534 L12.1919298,22.2959126 C12.4305263,24.820534 13.5,27.2305631 15.202807,29.0809223 L15.3947368,29.2896311 L8.19473684,36.6616117 L7.99052632,36.4457184 Z" id="path-1"/>
        <path d="M7.99052632,36.4457184 C4.32982456,32.5754466 2.19403509,27.4802233 1.97614035,22.0979806 L1.9754386,22.0753495 L1.96070175,22.0595437 C0.671929825,20.6653981 -0.0242105263,18.8391068 0.000701754386,16.9176214 C0.0249122807,14.9918252 0.770877193,13.1813398 2.10140351,11.819165 C2.89719298,11.0044466 3.83894737,10.4074175 4.90070175,10.0449612 L4.92140351,10.0381359 L4.9322807,10.0194563 C5.84596491,8.43779612 6.95894737,6.97036893 8.24070175,5.65812621 C10.7017544,3.13817476 13.7508772,1.2533301 17.0582456,0.206553398 L17.3449123,0.116029126 L19.9796491,10.1929612 L19.7252632,10.282767 C18.1224561,10.8489029 16.6403509,11.7979709 15.4389474,13.0279515 C14.9161404,13.562835 14.4435088,14.1519612 14.0340351,14.7784466 L14.0185965,14.8021553 L14.0270175,14.8294563 C14.8203509,17.4456796 14.1389474,20.2731262 12.2491228,22.2079029 L12.1894737,22.267534 L12.1919298,22.2959126 C12.4305263,24.820534 13.5,27.2305631 15.202807,29.0809223 L15.3947368,29.2896311 L8.19473684,36.6616117 L7.99052632,36.4457184 Z" id="path-3"/>
        <path d="M0.346417589,16.6921374 C0.346421769,18.5060875 1.01263062,20.225671 2.22807018,21.54384 L2.31719298,21.64032 L2.32245614,21.77316 C2.53789474,27.10584 4.64175439,32.12928 8.25578947,35.9586 L15.0501754,28.98684 C13.3010526,27.08172 12.2077193,24.61824 11.9624561,22.0122 L11.9466667,21.84336 L12.0645614,21.72456 L12.1024561,21.6864 C13.9164912,19.8252 14.5705263,17.10576 13.8087719,14.589 L13.7596491,14.427 L13.8515789,14.28588 C14.2719298,13.64184 14.7564912,13.03632 15.2926316,12.4866 C16.5284211,11.21868 18.0424561,10.24776 19.6887719,9.66528 L17.2010526,0.12996 C13.9364912,1.16532 10.9354386,3.02364 8.50280702,5.51988 C7.23824561,6.8166 6.14,8.26776 5.23824561,9.8316 L5.17263158,9.94608 L5.04982456,9.98784 C4.03157895,10.33632 3.12701754,10.91052 2.36350877,11.69424 C1.08631579,13.00428 0.370175439,14.74596 0.347017544,16.5978 C0.34661742,16.6292635 0.346417638,16.6607003 0.346417589,16.6921089 L0.346417589,16.6921374 Z" id="path-5"/>
        <path d="M17.353,25.2466667 C17.8422632,22.8274667 17.5976316,20.2656533 16.6552105,17.9935467 L16.5771053,17.8053867 L16.3781579,17.7725333 C14.8727895,17.5261333 13.5055789,16.8168 12.4242632,15.7210667 C11.3429474,14.6257067 10.6433158,13.2402667 10.3997895,11.7152 L10.3677368,11.5132267 L10.1816842,11.43408 C8.68663158,10.7971733 7.10278947,10.47424 5.47436842,10.47424 C4.51205263,10.47424 3.55452632,10.5892267 2.62205263,10.8173333 L0.0128947368,0.93968 C1.79568421,0.483466667 3.63189474,0.252 5.47621053,0.252 C9.34757895,0.252 13.16,1.27605333 16.5008421,3.21328 L16.604,3.27338667 L16.7222632,3.25957333 C16.9915789,3.22858667 17.2664211,3.21290667 17.5379474,3.21290667 C19.4692105,3.21290667 21.2851579,3.97525333 22.6501579,5.35882667 C24.2152105,6.94474667 24.9704737,9.13434667 24.7217895,11.3661333 L24.7085263,11.4859733 L24.7678421,11.5905067 C26.1910526,14.1112533 27.1069474,16.8556267 27.4904737,19.7470933 C27.8526316,22.4791467 27.7233158,25.2171733 27.1069474,27.89248 L17.353,25.2466667 Z" id="path-7"/>
        <path d="M19.78464,19.8463158 C17.91651,19.8463158 16.14236,19.2259649 14.78927,18.0084211 L14.69011,17.9442105 L14.55321,17.9512281 C9.23113,17.7407018 4.1773,15.7403509 0.28009,12.297193 L7.45143,5.5 C9.38468,7.11157895 11.75527,8.08385965 14.32936,8.31508772 L14.50215,8.33122807 L14.64904,8.19017544 C16.02063,6.88947368 17.84436,6.17368421 19.78353,6.17368421 C20.51169,6.17368421 21.23208,6.27614035 21.92583,6.47824561 L22.09159,6.52701754 L22.23589,6.4354386 C22.90152,6.01438596 23.52682,5.5277193 24.09477,4.98947368 C25.493,3.66315789 26.53122,2.04035088 27.11286,0.277894737 L36.9038,2.76210526 C35.86188,6.15087719 33.91494,9.26350877 31.25834,11.7831579 C29.92819,13.0445614 28.44079,14.1407018 26.83832,15.0410526 L26.72029,15.1073684 L26.67737,15.2305263 C26.31995,16.2540351 25.72869,17.1119298 24.9195,17.8792982 C23.54791,19.18 21.72418,19.8463158 19.78501,19.8463158 L19.78464,19.8463158 Z" id="path-9"/>
    </defs>
    <g id="Page-d'accueil" stroke="none" stroke-width="1" fill="none" fill-rule="evenodd" transform="translate(-129.000000, -130.000000)">
        <g id="Header" transform="translate(0.000000, 115.000000)">
            <g id="logo_samiinour" transform="translate(129.000000, 14.000000)">
                <g id="Group-3" transform="translate(0.000000, 1.000000)">
                    <mask id="mask-2" fill="white">
                        <use xlink:href="#path-1"/>
                    </mask>
                    <g id="Clip-2"/>
                    <polygon id="Fill-1" mask="url(#mask-2)" points="0 46.3182524 172.625614 46.3182524 172.625614 -0.77161165 0 -0.77161165"/>
                </g>
                <path d="M36.1416713,25.2293377 L36.1984282,24.9492455 C36.6688555,22.6210478 36.4301855,20.1382273 35.526805,17.9583789 L35.5137073,17.9277496 L35.4809629,17.9222142 C33.9321548,17.6683229 32.5256027,16.9376474 31.4130222,15.8091598 C30.3004417,14.6806722 29.5800658,13.2540099 29.3297534,11.6830577 L29.3246598,11.6498451 L29.2940984,11.6369292 C27.8540744,11.0228666 26.3289149,10.7114069 24.7611878,10.7114069 C23.835614,10.7114069 22.9114955,10.8228534 22.0143001,11.042056 L21.7305156,11.1118023 L19,0.76462603 L19.2943354,0.689344316 C21.0792667,0.231749588 22.9191358,0 24.7633708,0 C28.6381198,0 32.4542928,1.02589786 35.798947,2.9673542 L35.815683,2.97731796 L35.8356935,2.97510379 C36.1125652,2.94299835 36.3945305,2.92713015 36.6743129,2.92713015 C38.6618954,2.92713015 40.5301429,3.71205272 41.9348759,5.13686985 C43.5448068,6.76981878 44.3219396,9.02494893 44.0665336,11.3239934 L44.0639868,11.3435519 L44.0738101,11.3608962 C45.4989173,13.8861549 46.4161232,16.6361516 46.799596,19.5337595 C47.161603,22.268626 47.0328086,25.0141944 46.4161232,27.6940758 L46.3459047,28 L36.1416713,25.2293377" id="Fill-4"/>
                <path d="M28.7080797,47 C26.7829769,47 24.9562317,46.2781772 23.5642343,44.9673556 L23.5488774,44.9532022 L23.525842,44.9524764 C18.2053917,44.7325545 13.1280931,42.6251512 9.22779469,39.0185774 L9,38.8073653 L16.5062554,31.357602 L16.7179619,31.5423219 C18.5787118,33.1656067 20.870553,34.1465455 23.345215,34.379532 L23.3733694,34.3824353 L23.418709,34.3367089 C24.8319136,32.933346 26.709483,32.161442 28.7062515,32.161442 C29.4558167,32.161442 30.198069,32.2721287 30.9118013,32.4902361 L30.9395901,32.49822 L30.9629911,32.482615 C31.6043264,32.0576504 32.2069037,31.5669996 32.7535378,31.024453 C34.0972705,29.6911312 35.1031504,28.0482494 35.662582,26.2732693 L35.7485078,26 L46,28.7225314 L45.9140742,29.0157606 C44.8708989,32.5660837 42.9150822,35.8366053 40.259062,38.4734905 C38.9262985,39.7959251 37.4366748,40.9448899 35.8311428,41.8888121 L35.8121294,41.9000622 L35.8051822,41.9207479 C35.4377125,43.0225348 34.8285536,44.0005703 33.9945253,44.8283621 C32.5838801,46.2284589 30.7063108,47 28.7080797,47" id="Fill-6"/>
                <g id="Group-10" transform="translate(0.000000, 1.000000)">
                    <mask id="mask-4" fill="white">
                        <use xlink:href="#path-3"/>
                    </mask>
                    <g id="Clip-9"/>
                    <polygon id="Fill-8" mask="url(#mask-4)" points="0 46.3182524 172.625614 46.3182524 172.625614 -0.77161165 0 -0.77161165"/>
                </g>
                <path d="M46.3459047,28 L36.1416713,25.2293377 L36.1984282,24.9492455 C36.6688555,22.6210478 36.4301855,20.1382273 35.526805,17.9583789 L35.5137073,17.9277496 L35.4809629,17.9222142 C33.9321548,17.6683229 32.5256027,16.9376474 31.4130222,15.8091598 C30.3004417,14.6806722 29.5800658,13.2540099 29.3297534,11.6830577 L29.3246598,11.6498451 L29.2940984,11.6369292 C27.8540744,11.0228666 26.3289149,10.7114069 24.7611878,10.7114069 C23.835614,10.7114069 22.9114955,10.8228534 22.0143001,11.042056 L21.7305156,11.1118023 L19,0.76462603 L19.2943354,0.689344316 C21.0792667,0.231749588 22.9191358,0 24.7633708,0 C28.6381198,0 32.4542928,1.02589786 35.798947,2.9673542 L35.815683,2.97731796 L35.8356935,2.97510379 C36.1125652,2.94299835 36.3945305,2.92713015 36.6743129,2.92713015 C38.6618954,2.92713015 40.5301429,3.71205272 41.9348759,5.13686985 C43.5448068,6.76981878 44.3219396,9.02494893 44.0665336,11.3239934 L44.0639868,11.3435519 L44.0738101,11.3608962 C45.4989173,13.8861549 46.4161232,16.6361516 46.799596,19.5337595 C47.161603,22.268626 47.0328086,25.0141944 46.4161232,27.6940758 L46.3459047,28 M36.5517034,25.0101351 L46.184002,27.6254366 C46.567111,25.9622273 46.7595751,24.2746623 46.7606666,22.5793476 C46.7613942,21.5792817 46.6955417,20.5762636 46.5627451,19.5739835 C46.184002,16.7158616 45.2795301,14.0031367 43.8740695,11.5114596 L43.8154935,11.4081318 L43.8285912,11.2896738 C43.8591526,11.0140099 43.8744333,10.738715 43.8744333,10.4656343 C43.875161,8.55185502 43.1351385,6.72332125 41.7827965,5.35164415 C40.4348205,3.98402636 38.6415211,3.23047117 36.7343442,3.23047117 C36.4662043,3.23047117 36.1947899,3.24597035 35.928833,3.27659967 L35.8120448,3.29025371 L35.7101735,3.2308402 C32.4109975,1.31595387 28.646124,0.303710049 24.8230383,0.303710049 C23.0017244,0.303710049 21.1884146,0.532507414 19.4278596,0.983459638 L22.0044767,10.7472026 C22.9253209,10.5217265 23.8709051,10.4080659 24.8212192,10.4080659 C26.429331,10.4080659 27.9934198,10.7272751 29.4698265,11.3568369 L29.6535587,11.4350708 L29.6852116,11.634715 C29.9257007,13.1421944 30.6166067,14.5116573 31.6844366,15.5943855 C32.7522665,16.6774827 34.1024255,17.3786359 35.5890193,17.6221944 L35.7854855,17.6546689 L35.8626166,17.840659 C36.4807573,19.3322702 36.7947393,20.9497199 36.7947393,22.5686458 C36.7943755,23.3875189 36.7139699,24.2067611 36.5517034,25.0101351" id="Fill-11"/>
                <path d="M28.7080797,47 C26.7829769,47 24.9562317,46.2781772 23.5642343,44.9673556 L23.5488774,44.9532022 L23.525842,44.9524764 C18.2053917,44.7325545 13.1280931,42.6251512 9.22779469,39.0185774 L9,38.8073653 L16.5062554,31.357602 L16.7179619,31.5423219 C18.5787118,33.1656067 20.870553,34.1465455 23.345215,34.379532 L23.3733694,34.3824353 L23.418709,34.3367089 C24.8319136,32.933346 26.709483,32.161442 28.7062515,32.161442 C29.4558167,32.161442 30.198069,32.2721287 30.9118013,32.4902361 L30.9395901,32.49822 L30.9629911,32.482615 C31.6043264,32.0576504 32.2069037,31.5669996 32.7535378,31.024453 C34.0972705,29.6911312 35.1031504,28.0482494 35.662582,26.2732693 L35.7485078,26 L46,28.7225314 L45.9140742,29.0157606 C44.8708989,32.5660837 42.9150822,35.8366053 40.259062,38.4734905 C38.9262985,39.7959251 37.4366748,40.9448899 35.8311428,41.8888121 L35.8121294,41.9000622 L35.8051822,41.9207479 C35.4377125,43.0225348 34.8285536,44.0005703 33.9945253,44.8283621 C32.5838801,46.2284589 30.7063108,47 28.7080797,47" id="Fill-13"/>
                <path d="M73,27.0441462 L66.0688532,27.0441462 C64.9361179,27.0441462 64.2298726,27.2588734 63.9487458,27.6883277 C63.7858979,27.9496733 63.7043026,28.5422921 63.7043026,29.466184 C63.7043026,29.9517923 63.9172047,30.3296839 64.3433518,30.6002119 C64.6961316,30.8149391 65.2717559,30.9223027 66.0688532,30.9223027 L68.9363465,30.9223027 C70.1599337,30.9223027 71.1380493,31.1741127 71.8720645,31.678439 C72.6057368,32.182059 72.9729158,32.8915769 72.9729158,33.8062864 L72.9729158,36.0181882 C72.9729158,36.9795162 72.596823,37.7169345 71.8449803,38.2300901 C71.0927947,38.7432456 70.0646249,39 68.760128,39 L61.0270842,39 L61.0270842,36.956207 L67.958231,36.956207 C69.1084509,36.956207 69.8242958,36.723115 70.1054225,36.2558714 C70.2322724,36.013597 70.2956974,35.3835423 70.2956974,34.3660604 C70.2956974,33.4142681 69.5435118,32.9381953 68.0394835,32.9381953 L65.1719902,32.9381953 C63.9850866,32.9381953 63.0110851,32.7051033 62.2499857,32.238213 C61.4165476,31.7250574 61,31.025075 61,30.1379128 L61,27.9542645 C61,26.9742186 61.4528884,26.1951263 62.3590081,25.6162811 C62.9929147,25.2055448 63.9127478,25 65.1178218,25 L73,25 L73,27.0441462" id="Fill-15" fill="#44A07E"/>
                <path d="M77.136305,26.8373651 L80,26.8373651 L80,25 L77.136305,25 L77.136305,26.8373651 Z M77,39 L80,39 L80,28.4507217 L77,28.4507217 L77,39 Z" id="Fill-16" fill="#44A07E"/>
                <path d="M85.4844779,25 L85.4844779,28.5214094 L91.0332403,28.5214094 C93.6776281,28.5214094 95,29.6389465 95,31.8736666 L95,38.9720439 L92.5433015,38.9720439 L92.5433015,32.659269 C92.5433015,31.9578889 92.3979937,31.4670644 92.1055974,31.1864415 C91.8142696,30.9058187 91.2960765,30.7653304 90.5531549,30.7653304 L86.0917077,30.7653304 C85.6867692,30.7653304 85.4844779,30.9528841 85.4844779,31.326576 L85.4844779,39 L83,39 L83,25 L85.4844779,25" id="Fill-17" fill="#44A07E"/>
                <path d="M100.484404,25 L100.484404,28.5214094 L106.033358,28.5214094 C108.677667,28.5214094 110,29.6389465 110,31.8736666 L110,38.9720439 L107.543374,38.9720439 L107.543374,32.659269 C107.543374,31.9578889 107.398071,31.4670644 107.105683,31.1864415 C106.814364,30.9058187 106.296186,30.7653304 105.553287,30.7653304 L101.091972,30.7653304 C100.687046,30.7653304 100.484404,30.9528841 100.484404,31.326576 L100.484404,39 L98,39 L98,25 L100.484404,25" id="Fill-18" fill="#44A07E"/>
                <path d="M122.527191,35.8927365 L122.527191,33.7773094 C122.527191,33.5340426 122.334712,33.4125933 121.951171,33.4125933 L117.229226,33.4125933 C116.058754,33.4125933 115.472809,33.8696845 115.472809,34.783867 L115.472809,35.8636622 C115.472809,36.262605 115.646856,36.5662284 115.992822,36.7752685 C116.339852,36.9843086 116.760612,37.0891967 117.257584,37.0891967 L120.798423,37.0891967 C121.951171,37.0891967 122.527191,36.6902539 122.527191,35.8927365 Z M125,36.2574526 C125,37.0744756 124.688418,37.7358225 124.065607,38.2414935 C123.442442,38.7471645 122.59206,39 121.514814,39 L116.793933,39 C115.669542,39 114.770951,38.7810231 114.096033,38.3438054 C113.365462,37.8672087 113,37.2007093 113,36.3446753 L113,34.4047978 C113,33.5196895 113.325407,32.8392051 113.97693,32.3622403 C114.627743,31.8856435 115.519954,31.6471612 116.653207,31.6471612 L122.55484,31.6471612 C122.536053,31.0343939 122.419077,30.5968082 122.203911,30.334404 C121.941246,30.0329887 121.426196,29.8820971 120.657697,29.8820971 L113.056007,29.8820971 L113.056007,28 L120.99551,28 C123.665406,28 125,28.9289036 125,30.7867108 L125,36.2574526 Z" id="Fill-19" fill="#44A07E"/>
                <polygon id="Fill-20" fill="#3B55E6" points="134.347946 27.0380282 134.347946 39 131.625129 39 131.625129 27.0380282 127 27.0380282 127 25 139 25 139 27.0380282"/>
                <path d="M149.464278,31.2767528 L149.464278,31.1158672 C149.464278,30.2771218 148.807343,29.8579336 147.493116,29.8579336 L144.760207,29.8579336 C143.239201,29.8579336 142.47852,30.3309963 142.47852,31.2767528 L142.47852,33.4269373 L149.464278,31.2767528 Z M152,32.3446494 L142.506943,35.2557196 L142.506943,35.6214022 C142.506943,36.196679 142.717987,36.6158672 143.140785,36.8793358 C143.432124,37.0354244 143.934508,37.1132841 144.647935,37.1132841 L151.971577,37.1132841 L151.971577,39 L144.182857,39 C142.840207,39 141.850007,38.7907749 141.211547,38.3712177 C140.403612,37.8738007 140,37.0841328 140,36.001476 L140,30.7940959 C140,28.9317343 141.319201,28 143.957957,28 L148.309578,28 C150.769623,28 152,28.9900369 152,30.9693727 L152,32.3446494 Z" id="Fill-21" fill="#3B55E6"/>
                <path d="M164,39 L158.183062,39 C155.394109,39 154,38.0324534 154,36.0966242 L154,30.7867108 C154,28.9289036 155.17567,28 157.527378,28 L163.941161,28 L163.941161,29.8820971 L158.591623,29.8820971 C157.843268,29.8820971 157.318501,29.9818328 157.017321,30.1809361 C156.715772,30.3804075 156.565734,30.7524842 156.565734,31.2971662 L156.565734,35.6594065 C156.565734,36.6317374 157.284669,37.1182709 158.723274,37.1182709 L164,37.1182709 L164,39" id="Fill-22" fill="#3B55E6"/>
                <path d="M169.484552,28.5214094 L175.033123,28.5214094 C177.677589,28.5214094 179,29.6389465 179,31.8736666 L179,38.9720439 L176.543941,38.9720439 L176.543941,32.659269 C176.543941,31.9578889 176.397916,31.4670644 176.105512,31.1864415 C175.814175,30.9058187 175.295967,30.7653304 174.553023,30.7653304 L170.091799,30.7653304 C169.686493,30.7653304 169.484552,30.9528841 169.484552,31.326576 L169.484552,39 L167,39 L167,25 L169.484552,25 L169.484552,28.5214094 Z" id="Fill-23" fill="#3B55E6"/>
                <g id="Group-26" transform="translate(0.000000, 2.000000)">
                    <mask id="mask-6" fill="white">
                        <use xlink:href="#path-5"/>
                    </mask>
                    <g id="Clip-25"/>
                    <path d="M8.25578947,35.9586 C4.64175439,32.12928 2.53789474,27.10584 2.32245614,21.77316 L2.31719298,21.64032 L2.22807018,21.54384 C0.991578947,20.20284 0.323508772,18.4464 0.347017544,16.5978 C0.370175439,14.74596 1.08631579,13.00428 2.36350877,11.69424 C3.12701754,10.91052 4.03157895,10.33632 5.04982456,9.98784 L5.17263158,9.94608 L5.23824561,9.8316 C6.14,8.26776 7.23824561,6.8166 8.50280702,5.51988 C10.9354386,3.02364 13.9364912,1.16532 17.2010526,0.12996 L19.6887719,9.66528 C18.0424561,10.24776 16.5284211,11.21868 15.2926316,12.4866 C14.7564912,13.03632 14.2719298,13.64184 13.8515789,14.28588 L13.7596491,14.427 L13.8087719,14.589 C14.5705263,17.10576 13.9164912,19.8252 12.1024561,21.6864 L12.0645614,21.72456 L11.9466667,21.84336 L11.9624561,22.0122 C12.2077193,24.61824 13.3010526,27.08172 15.0501754,28.98684 L8.25578947,35.9586" id="Fill-24" mask="url(#mask-6)"/>
                </g>
                <g id="Group-29" transform="translate(19.000000, 0.000000)">
                    <mask id="mask-8" fill="white">
                        <use xlink:href="#path-7"/>
                    </mask>
                    <g id="Clip-28"/>
                    <path d="M17.353,25.2466667 C17.8422632,22.8274667 17.5976316,20.2656533 16.6552105,17.9935467 L16.5771053,17.8053867 L16.3781579,17.7725333 C14.8727895,17.5261333 13.5055789,16.8168 12.4242632,15.7210667 C11.3429474,14.6257067 10.6433158,13.2402667 10.3997895,11.7152 L10.3677368,11.5132267 L10.1816842,11.43408 C8.68663158,10.7971733 7.10278947,10.47424 5.47436842,10.47424 C4.51205263,10.47424 3.55452632,10.5892267 2.62205263,10.8173333 L0.0128947368,0.93968 C1.79568421,0.483466667 3.63189474,0.252 5.47621053,0.252 C9.34757895,0.252 13.16,1.27605333 16.5008421,3.21328 L16.604,3.27338667 L16.7222632,3.25957333 C16.9915789,3.22858667 17.2664211,3.21290667 17.5379474,3.21290667 C19.4692105,3.21290667 21.2851579,3.97525333 22.6501579,5.35882667 C24.2152105,6.94474667 24.9704737,9.13434667 24.7217895,11.3661333 L24.7085263,11.4859733 L24.7678421,11.5905067 C26.1910526,14.1112533 27.1069474,16.8556267 27.4904737,19.7470933 C27.8526316,22.4791467 27.7233158,25.2171733 27.1069474,27.89248 L17.353,25.2466667" id="Fill-27" mask="url(#mask-8)"/>
                </g>
                <g id="Group-32" transform="translate(9.000000, 26.000000)">
                    <mask id="mask-10" fill="white">
                        <use xlink:href="#path-9"/>
                    </mask>
                    <g id="Clip-31"/>
                    <path d="M19.78464,19.8463158 C17.91651,19.8463158 16.14236,19.2259649 14.78927,18.0084211 L14.69011,17.9442105 L14.55321,17.9512281 C9.23113,17.7407018 4.1773,15.7403509 0.28009,12.297193 L7.45143,5.5 C9.38468,7.11157895 11.75527,8.08385965 14.32936,8.31508772 L14.50215,8.33122807 L14.64904,8.19017544 C16.02063,6.88947368 17.84436,6.17368421 19.78353,6.17368421 C20.51169,6.17368421 21.23208,6.27614035 21.92583,6.47824561 L22.09159,6.52701754 L22.23589,6.4354386 C22.90152,6.01438596 23.52682,5.5277193 24.09477,4.98947368 C25.493,3.66315789 26.53122,2.04035088 27.11286,0.277894737 L36.9038,2.76210526 C35.86188,6.15087719 33.91494,9.26350877 31.25834,11.7831579 C29.92819,13.0445614 28.44079,14.1407018 26.83832,15.0410526 L26.72029,15.1073684 L26.67737,15.2305263 C26.31995,16.2540351 25.72869,17.1119298 24.9195,17.8792982 C23.54791,19.18 21.72418,19.8463158 19.78501,19.8463158 L19.78464,19.8463158" id="Fill-30" mask="url(#mask-10)"/>
                </g>
                <path d="M2.04322444,23.7467144 L2.03778233,23.613239 L1.94562932,23.5162976 C0.667097031,22.1688839 -0.0236877238,20.4040432 0.000620353147,18.5466018 C0.024565623,16.6859049 0.765054954,14.9358949 2.08567287,13.6195892 C2.87514116,12.8321209 3.81045791,12.2551746 4.86332417,11.9050279 L4.99030667,11.8630682 L5.0581516,11.7480407 C5.99056589,10.1767212 7.12615218,8.71862063 8.43370904,7.41569873 C10.9490508,4.90751979 14.0521401,3.04031188 17.4276975,2 L20,11.5809252 C18.297709,12.1661911 16.7321963,13.1417548 15.4543896,14.4157389 C14.9000203,14.9680881 14.3989837,15.5765042 13.9643408,16.2236245 L13.8692853,16.3654194 L13.9200783,16.5281942 C14.7077326,19.0569913 14.0314601,21.7894377 12.1557473,23.6595394 L11.9946609,23.8172501 L12.0109872,23.9868976 C12.2645894,26.6054017 13.3950964,29.080664 15.2036899,30.9948957 L8.17829282,38 C4.44137949,34.1523653 2.26598801,29.1048993 2.04322444,23.7467144 Z" id="Fill-33" fill="#3B55E6"/>
                <path d="M36.5418673,25.415495 C37.0368233,23.0523522 36.7893453,20.5499007 35.8359586,18.3304429 L35.7569446,18.1466429 L35.5556823,18.1145508 C34.0327981,17.8738604 32.6496793,17.1809636 31.5557818,16.1106204 C30.4618843,15.0406418 29.7541121,13.687305 29.5077522,12.1975769 L29.4753266,12.0002836 L29.2871091,11.9229709 C27.7746607,11.3008226 26.1723897,10.9853722 24.5250211,10.9853722 C23.5515082,10.9853722 22.5828405,11.0976944 21.6395169,11.3205154 L19,1.67174521 C20.8035332,1.22610316 22.6611091,1 24.5268846,1 C28.4432986,1 32.3000793,2.00032416 35.6797941,3.89266178 L35.7841523,3.95137566 L35.9037915,3.93788241 C36.1762409,3.90761376 36.454281,3.89229709 36.7289666,3.89229709 C38.6827011,3.89229709 40.5197781,4.63697881 41.9006606,5.98849224 C43.4839236,7.5376636 44.2479746,9.6765266 43.9963968,11.8565987 L43.9829794,11.9736618 L44.0429853,12.0757729 C45.4827557,14.5381093 46.4093074,17.2188906 46.7972963,20.0433567 C47.1636681,22.7121034 47.0328476,25.386685 46.4093074,28 L36.5418673,25.415495" id="Fill-34" fill="#CB2D69"/>
                <path d="M29.1723831,46 C27.3360678,46 25.592132,45.3659674 24.2620854,44.1215707 L24.1646141,44.0559441 L24.0300456,44.0631164 C18.7986018,43.8479469 13.8308396,41.8034786 10,38.2843823 L17.0492105,31.3372781 C18.9495368,32.9844002 21.2797551,33.9781244 23.8100078,34.2144522 L23.9798551,34.2309485 L24.1242436,34.086785 C25.4724751,32.7573964 27.2651465,32.0258203 29.171292,32.0258203 C29.8870513,32.0258203 30.5951729,32.1305361 31.2771082,32.3370988 L31.4400453,32.3869464 L31.5818878,32.2933477 C32.236182,31.8630088 32.850833,31.3656088 33.4091107,30.8154922 C34.7835285,29.4599247 35.8040674,27.8013269 36.3758019,26 L46,28.5389995 C44.9758241,32.0025103 43.062041,35.1837906 40.4506835,37.7590102 C39.1431862,39.0482338 37.681117,40.1685494 36.1059374,41.0887574 L35.9899175,41.1565358 L35.9477284,41.2824099 C35.5963953,42.328492 35.0152046,43.2053075 34.2197953,43.9896001 C32.8715638,45.3189887 31.0788923,46 29.1727468,46 L29.1723831,46" id="Fill-35" fill="#44A07E"/>
                <path d="M15,26.8270276 C14.5970585,27.3040015 14.13747,27.7416187 13.686432,27.8604108 C13.4683947,27.9163767 13.4281362,27.9189042 13.2991664,27.9481509 C12.3276177,28.1651541 11.4754196,27.6481015 11.0614337,27.3729659 C10.1971223,26.7974199 9.51842772,25.1823525 9.26796981,24.5114839 L9.20241611,24.5230381 C8.65482891,24.645441 7.50443265,24.7353475 5.96071416,23.9716838 L5.80894308,23.8962201 L5.88554116,23.7250728 C5.04331856,23.2545982 4.09421493,22.2771809 3.31540841,21.0733726 C2.49634338,19.8056548 2.00504686,18.5072461 2.00005908,17.6005986 C1.9915086,16.1555953 2.91317943,15.6443197 3.41160135,15.4738946 C3.4372528,15.378572 3.49853126,15.2944426 3.58724253,15.2467814 C3.75005798,15.1590413 3.94244385,15.2290889 4.01690431,15.4024027 C4.09136477,15.5760775 4.0193982,15.7873036 3.85658275,15.8743215 C3.71692485,15.9494241 3.55660329,15.9086232 3.46611068,15.7865814 C3.0435743,15.9273988 2.29576329,16.3505732 2.30253242,17.5857947 C2.3075202,18.4303381 2.77922186,19.6608656 3.56586632,20.8780336 C4.31545868,22.0374303 5.22109736,22.9754909 6.01949873,23.4250234 L6.0914653,23.263625 L6.24216756,23.3380054 C8.00036068,24.2078238 9.13757494,23.8445871 9.3182039,23.7767058 C9.45643671,23.6766894 10.4457989,22.8982218 10.9403018,20.8191791 L10.982698,20.6408104 L11.1408819,20.6794449 C11.3272112,19.7016666 11.2402813,18.3252666 10.9007558,16.9459781 C10.5444857,15.4984473 9.98193516,14.3163032 9.39658333,13.7833635 C8.90706817,13.3385249 8.38905139,13.2182885 7.85607127,13.4244596 C7.67152334,13.4959515 7.51761464,13.5952459 7.40432074,13.6815417 C7.43032846,13.8349965 7.35800562,13.9978392 7.22012908,14.0718586 C7.0576699,14.1588766 6.86528403,14.08919 6.79082357,13.9155152 C6.71636311,13.7418404 6.78797341,13.5306143 6.95078886,13.4435963 C7.03950012,13.3959351 7.13711814,13.3952129 7.21906027,13.4320421 C7.64480308,13.1038292 8.58179353,12.6062743 9.59573834,13.5284479 C10.2252677,14.1011053 10.8223764,15.342465 11.1932536,16.8499334 C11.5456048,18.2826603 11.6325347,19.7208033 11.433736,20.7498536 L11.6008267,20.7899324 L11.5584305,20.9683011 C11.1045424,22.878724 10.2755018,23.8203953 9.84583997,24.1984359 C10.2209924,25.2072663 10.8106195,26.3753287 11.3977527,26.7660068 C11.8096009,27.0404202 12.4491058,27.3332482 13.1591522,27.1747383 C13.2567702,27.152713 13.3551008,27.1223831 13.4505812,27.0844708 C13.8228835,26.9360709 14.2101491,26.6508253 14.5411241,26.2594251 L15,26.8270276" id="Fill-36" fill="#FFFFFE"/>
                <g id="Group-40" transform="translate(2.000000, 12.000000)" fill="#FFFFFE">
                    <path d="M13.6709091,14.4879588 L13.5574545,14.388866 C13.1552727,14.8720825 12.692,15.3007423 12.2923636,15.402433 L12.2934545,15.4020619 C12.0745455,15.4584742 12.0410909,15.4599588 11.9025455,15.491134 C11.7487273,15.5256495 11.5981818,15.540866 11.4516364,15.540866 C10.7181818,15.5423505 10.0785455,15.1537732 9.73309091,14.9214433 C9.32872727,14.6527423 8.93963636,14.1060619 8.63127273,13.5408247 C8.32145455,12.9755876 8.08654545,12.3940206 7.96036364,12.0536907 L7.91672727,11.9356701 L7.72763636,11.9694433 L7.72436364,11.9701856 L7.72109091,11.9709278 C7.536,12.0124948 7.27745455,12.0507216 6.95381818,12.0507216 C6.34909091,12.0507216 5.51709091,11.9171134 4.51054545,11.4157113 L4.48618182,11.4034639 L4.50436364,11.3626392 L4.56145455,11.2342268 L4.44036364,11.1659381 C3.61381818,10.7023918 2.65345455,9.71183505 1.86981818,8.49006186 C1.04363636,7.20556701 0.554181818,5.88321649 0.551636364,5.00362887 L0.551636364,4.98470103 C0.552727273,4.28251546 0.770909091,3.82824742 1.04363636,3.51797938 C1.31672727,3.20845361 1.65345455,3.04478351 1.89054545,2.96313402 L1.96618182,2.93715464 L1.98727273,2.85847423 C2.00363636,2.79760825 2.04145455,2.74713402 2.09236364,2.7196701 L2.172,2.69851546 C2.23381818,2.69925773 2.292,2.73340206 2.32363636,2.80614433 L2.34109091,2.89336082 C2.34145455,2.97686598 2.29527273,3.05925773 2.22727273,3.0948866 L2.22690909,3.09525773 L2.14763636,3.11604124 C2.09854545,3.11604124 2.052,3.09340206 2.01818182,3.04812371 L1.95381818,2.96053608 L1.852,2.99468041 C1.62036364,3.07261856 1.29854545,3.22775258 1.03127273,3.53802062 C0.764,3.84754639 0.560363636,4.31257732 0.561454545,4.97171134 L0.561454545,4.99026804 C0.569454545,5.91179381 1.06327273,7.18775258 1.87527273,8.45665979 C2.65127273,9.6643299 3.58363636,10.642268 4.432,11.1247423 L4.57418182,11.2052784 L4.65127273,11.0312165 L4.66654545,11.0390103 C5.62036364,11.514433 6.40727273,11.6421031 6.97163636,11.6421031 C7.49090909,11.6421031 7.82145455,11.5344742 7.92363636,11.4958763 L7.94218182,11.4888247 L7.95854545,11.4769485 C8.12327273,11.3581856 9.16,10.523134 9.67272727,8.34865979 L9.68072727,8.31340206 L9.69709091,8.31748454 L9.84945455,8.35459794 L9.87890909,8.19797938 C9.94690909,7.83872165 9.97963636,7.4334433 9.97963636,6.99736082 C9.97963636,6.17121649 9.86181818,5.23373196 9.632,4.29439175 C9.26145455,2.7883299 8.69018182,1.55727835 8.05163636,0.967175258 C7.69127273,0.636494845 7.29818182,0.457979381 6.89054545,0.458721649 C6.70254545,0.458721649 6.51309091,0.496206186 6.32581818,0.569319588 C6.12036364,0.649484536 5.952,0.758969072 5.828,0.853979381 L5.75527273,0.910020619 L5.77054545,1.00206186 L5.77381818,1.04028866 C5.77418182,1.12416495 5.72836364,1.2065567 5.66036364,1.24218557 L5.58109091,1.26296907 C5.51927273,1.2622268 5.46109091,1.22808247 5.42909091,1.15571134 L5.42945455,1.15571134 L5.41163636,1.06775258 C5.41127273,0.984247423 5.45709091,0.90185567 5.52509091,0.866597938 L5.52545455,0.866226804 L5.60472727,0.845443299 L5.66836364,0.859175258 L5.74909091,0.89628866 L5.81963636,0.841360825 C6.05418182,0.658391753 6.44872727,0.427175258 6.90763636,0.42828866 C7.24981818,0.429402062 7.63563636,0.549649485 8.05490909,0.93228866 C8.65745455,1.47971134 9.26872727,2.73934021 9.64,4.26989691 C9.87054545,5.21257732 9.988,6.15785567 9.988,6.9862268 C9.988,7.43641237 9.95345455,7.85171134 9.88436364,8.21208247 L9.85672727,8.35608247 L10.0207273,8.39579381 L10.0127273,8.42993814 C9.556,10.3631753 8.72945455,11.3002887 8.31236364,11.6706804 L8.23345455,11.7404536 L8.27018182,11.8399175 C8.464,12.364701 8.71272727,12.9306804 8.99163636,13.4205773 C9.272,13.9104742 9.57636364,14.3257732 9.912,14.5529072 C10.2647273,14.7889485 10.7778182,15.0431753 11.3763636,15.0439175 C11.5214545,15.0442887 11.6716364,15.028701 11.8243636,14.9945567 C11.932,14.9700619 12.0392727,14.9366598 12.1443636,14.8947216 C12.552,14.7306804 12.964,14.4226392 13.316,14.0036289 L13.2025455,13.9045361 L13.0869091,14.0014021 L13.5552727,14.5848247 L13.6709091,14.4879588 L13.5574545,14.388866 L13.6709091,14.4879588 L13.7865455,14.3910928 L13.2050909,13.6666392 L13.0890909,13.8050722 C12.7654545,14.1906804 12.3872727,14.4694021 12.0349091,14.610433 C11.9443636,14.6468041 11.8516364,14.6753814 11.76,14.6961649 C11.6290909,14.7254845 11.5010909,14.7384742 11.3763636,14.7384742 C10.864,14.7395876 10.4,14.5154227 10.0763636,14.297567 C9.81272727,14.123134 9.51672727,13.7371546 9.25054545,13.267299 C8.98290909,12.7974433 8.73927273,12.2440825 8.55018182,11.7322887 L8.41018182,11.7861031 L8.50836364,11.9015258 C8.968,11.4947629 9.83345455,10.4956701 10.3036364,8.50156701 L10.3821818,8.1697732 L10.0654545,8.09294845 L10.0309091,8.24140206 L10.1778182,8.27072165 C10.2516364,7.8862268 10.2872727,7.45237113 10.2872727,6.9862268 C10.2872727,6.12890722 10.1661818,5.16136082 9.93054545,4.19604124 C9.54472727,2.62762887 8.93745455,1.33496907 8.25490909,0.705154639 C7.79127273,0.279092784 7.32254545,0.121731959 6.90763636,0.122845361 C6.34945455,0.123958763 5.90218182,0.39414433 5.63854545,0.598268041 L5.72909091,0.719628866 L5.79018182,0.580453608 C5.732,0.554103093 5.66909091,0.54 5.60472727,0.54 C5.53054545,0.54 5.45490909,0.558927835 5.38545455,0.596412371 C5.21054545,0.691793814 5.11272727,0.877360825 5.11236364,1.06775258 C5.11236364,1.13789691 5.12581818,1.20952577 5.15490909,1.2774433 C5.23090909,1.45781443 5.40072727,1.56915464 5.58109091,1.56841237 C5.65490909,1.56841237 5.73054545,1.54985567 5.80036364,1.51237113 L5.80036364,1.512 C5.97527273,1.41624742 6.07272727,1.23068041 6.07309091,1.04028866 L6.06545455,0.950103093 L5.91818182,0.976082474 L6.008,1.09818557 C6.11563636,1.01542268 6.26145455,0.921154639 6.43272727,0.854350515 C6.58945455,0.793484536 6.74145455,0.764164948 6.89054545,0.764164948 C7.21127273,0.764536082 7.52872727,0.899628866 7.85163636,1.19430928 C8.40836364,1.69942268 8.98545455,2.89892784 9.34181818,4.36824742 C9.56581818,5.28494845 9.68072727,6.20090722 9.68036364,6.99736082 C9.68036364,7.41748454 9.64872727,7.80457732 9.58509091,8.14008247 L9.732,8.16903093 L9.76690909,8.02057732 L9.60545455,7.98086598 L9.46,7.94560825 L9.38181818,8.27703093 C8.88509091,10.3761649 7.90181818,11.1418144 7.78472727,11.2282887 L7.87163636,11.3526186 L7.81927273,11.2093608 C7.74509091,11.237567 7.45054545,11.3366598 6.97163636,11.3366598 C6.45127273,11.3362887 5.71272727,11.2201237 4.79781818,10.7643711 L4.64363636,10.6879175 L4.50545455,10.6192577 L4.36836364,10.9284124 L4.50472727,10.991134 L4.57745455,10.8578969 C3.79563636,10.4158763 2.87927273,9.4657732 2.12581818,8.28927835 L2.12327273,8.28593814 L2.12545455,8.28927835 C1.332,7.05674227 0.862545455,5.80268041 0.860727273,4.98841237 L0.860727273,4.97171134 C0.861818182,4.37492784 1.03745455,3.99562887 1.25636364,3.73954639 C1.47563636,3.48383505 1.74763636,3.35096907 1.94545455,3.28490722 L1.89854545,3.13979381 L1.77890909,3.23146392 C1.86690909,3.35134021 2.004,3.42185567 2.14763636,3.42148454 C2.22181818,3.42148454 2.29745455,3.4025567 2.36727273,3.36470103 L2.36690909,3.36507216 C2.54218182,3.26969072 2.64,3.08412371 2.64036364,2.89336082 C2.64036364,2.82358763 2.62690909,2.75195876 2.59781818,2.68404124 C2.52218182,2.50441237 2.35236364,2.39270103 2.172,2.3934433 C2.09745455,2.39307216 2.02181818,2.412 1.952,2.4502268 L1.95090909,2.45059794 L1.952,2.44985567 C1.82181818,2.52074227 1.73454545,2.64321649 1.69854545,2.77793814 L1.84290909,2.81839175 L1.79490909,2.67364948 C1.52581818,2.76643299 1.14218182,2.9508866 0.821454545,3.31348454 C0.500363636,3.67496907 0.251272727,4.21645361 0.252363636,4.98470103 L0.252363636,5.00548454 C0.260727273,5.98936082 0.774181818,7.33620619 1.61963636,8.6574433 C2.42581818,9.91113402 3.40290909,10.9291546 4.29563636,11.4335258 L4.368,11.2995464 L4.23163636,11.2364536 L4.09381818,11.5470928 L4.37890909,11.6899794 L4.37927273,11.6903505 C5.42545455,12.2117938 6.30581818,12.3561649 6.95381818,12.3561649 C7.30072727,12.3561649 7.58109091,12.3149691 7.78545455,12.2689485 L7.75345455,12.1197526 L7.77927273,12.270433 L7.84618182,12.2581856 L7.82036364,12.1078763 L7.68036364,12.1620619 C7.81018182,12.5116701 8.04909091,13.1043711 8.37018182,13.6900206 C8.69236364,14.2749278 9.09054545,14.8538969 9.56872727,15.1767835 C9.928,15.4161649 10.6149091,15.8448247 11.4516364,15.8463093 C11.6185455,15.8463093 11.7909091,15.828866 11.9669091,15.7891546 L11.9749091,15.7876701 L11.9672727,15.7891546 C12.092,15.7609485 12.1410909,15.7564948 12.3665455,15.6982268 L12.3676364,15.6982268 C12.8890909,15.5553402 13.364,15.0847423 13.7847273,14.5874227 L13.8661818,14.4901856 L13.7865455,14.3910928 L13.6709091,14.4879588" id="Fill-37"/>
                    <polygon id="Fill-39" points="26.0010909 35.977732 27.8192727 35.977732 27.8192727 29.3195876 26.0010909 29.3195876"/>
                </g>
                <polyline id="Fill-41" fill="#FFFFFE" points="29 42.0235 29.0085 42.024 29.0255 42.013 29.005 42 29 42.0235"/>
                <path d="M30.9823113,41.3247918 C30.9690456,41.1878251 30.9468254,41.0527398 30.9163143,40.9206648 C30.8864664,40.788966 30.8483274,40.6610301 30.8028922,40.5383621 C30.7133485,40.2922736 30.5962784,40.0698908 30.4662742,39.8723427 C30.3359383,39.6755471 30.1926684,39.5028336 30.0440922,39.3508156 C29.8951843,39.1984214 29.7416334,39.0652175 29.5854294,38.9463123 C29.4298886,38.8262783 29.2713631,38.7220481 29.1131692,38.6257199 C28.9546436,38.5293917 28.7957865,38.4432231 28.636266,38.363075 C28.4770772,38.2829269 28.3168934,38.2114333 28.1570413,38.144455 C27.9975208,38.0771005 27.8373371,38.0157665 27.6771533,37.9585716 C27.5972273,37.9295979 27.5173012,37.9021293 27.4373752,37.8757896 L27.3770161,37.8558466 L27.3620921,37.8509549 L27.3607655,37.8505787 L27.3571175,37.8494498 L27.350153,37.8475684 L27.3312493,37.8423005 L27.2499967,37.8155844 L27.1694073,37.7824716 L27.0898129,37.7425857 C27.0370816,37.7151171 26.9853452,37.6820043 26.9349354,37.64701 C26.8347791,37.5755164 26.7395975,37.4916055 26.6527069,37.3982875 C26.566148,37.3049695 26.4882118,37.2022445 26.4188983,37.0953804 C26.2829246,36.8797707 26.1847581,36.646852 26.1423078,36.4255981 C26.1217459,36.3142186 26.1131231,36.2069782 26.119756,36.1004903 C26.1250623,35.9940025 26.1472824,35.8882672 26.1854214,35.7783928 C26.2255502,35.6700236 26.2849144,35.5590203 26.3648405,35.4536613 L26.4281844,35.3761472 L26.4683132,35.3370138 L26.5081104,35.2997619 C26.5618366,35.2504689 26.6172211,35.2034337 26.6742637,35.1590324 C26.7886807,35.0706061 26.9097305,34.9919631 27.0360867,34.9242323 C27.1621112,34.8568778 27.2937736,34.801188 27.4294157,34.7590444 C27.5647262,34.7161483 27.7040164,34.6879271 27.8449649,34.6721233 C27.9859133,34.6578245 28.1278567,34.6555669 28.2694684,34.6698656 C28.5523602,34.6969579 28.8325989,34.7819977 29.0863061,34.9268663 C29.2129938,34.9991125 29.333712,35.0860336 29.443486,35.1868773 C29.4985388,35.2372991 29.5516017,35.2911074 29.6013482,35.347926 C29.6510948,35.4051209 29.6971932,35.4645735 29.741965,35.5285415 C29.8232177,35.6440601 29.889878,35.7708672 29.9319967,35.8980505 C29.6610441,35.9593845 29.4521087,36.2239109 29.4408328,36.5505238 L29.4023622,37.6485151 C29.3990458,37.7568844 29.4408328,37.8675114 29.5227488,37.9386287 C29.6570643,38.0541473 29.8487542,38.0247973 29.951232,37.872403 L30.5382408,36.9986759 C30.6118656,36.8891777 30.6576324,36.7533399 30.6626071,36.605461 C30.6712298,36.3574911 30.5634457,36.1351083 30.3949709,36.0045384 C30.3853532,35.9232614 30.368771,35.8438659 30.3475459,35.7678569 C30.3186929,35.6658844 30.2812172,35.5695562 30.2377719,35.4792485 C30.1936633,35.3881882 30.1459067,35.3050299 30.0928437,35.2230003 C30.0421023,35.1443574 29.9857229,35.0679721 29.9263588,34.9953496 C29.8676579,34.9234797 29.8049773,34.8538675 29.7399752,34.789147 C29.6086444,34.659706 29.4670327,34.5441873 29.3164666,34.4456014 C29.015666,34.2491821 28.6833594,34.1171071 28.341435,34.0512577 C27.9988474,33.9854083 27.6459789,33.9835269 27.2994115,34.0426032 C27.1262937,34.0723295 26.9541708,34.1171071 26.7860276,34.1773122 C26.6172211,34.2363885 26.4520627,34.3112687 26.2925422,34.399695 C26.2129478,34.4444726 26.1340167,34.4918841 26.0574071,34.5426822 L25.9997011,34.5818155 L25.943985,34.6205726 C25.9028612,34.6491701 25.8614058,34.6770149 25.8206137,34.7078701 C25.6571135,34.8297855 25.4995829,34.9840612 25.3679205,35.1763414 C25.2345998,35.3667401 25.1307954,35.5955197 25.0694414,35.8389742 C25.0077557,36.0820525 24.9891837,36.3371718 25.0057659,36.5810027 C25.0137253,36.7029181 25.0309708,36.8233284 25.0548491,36.9392233 C25.0780641,37.0558707 25.1099019,37.1687554 25.1463827,37.2778772 C25.2196759,37.4957446 25.3168474,37.6970555 25.4296061,37.8825626 C25.5417016,38.068446 25.6703792,38.2381493 25.810996,38.3928013 C25.9519445,38.5470769 26.1048321,38.6866776 26.2689955,38.8104744 C26.3505798,38.872561 26.4354805,38.9297559 26.5227027,38.9846931 C26.566148,39.0117854 26.6105882,39.0377489 26.6556917,39.0622072 C26.7007952,39.0874181 26.746562,39.1115002 26.7926604,39.1340771 C26.8390905,39.1570303 26.8861839,39.1777258 26.9339405,39.1984214 L26.9710846,39.2142252 L26.9783807,39.2172355 L26.9816972,39.2187406 L26.9876667,39.2209983 L27.0006008,39.2262662 L27.0536638,39.2462092 C27.1236405,39.2740541 27.1936173,39.3022752 27.2625991,39.331249 C27.4008944,39.3903253 27.5368682,39.4531644 27.6695255,39.51939 C27.8021829,39.585992 27.9315238,39.6574856 28.0565534,39.7323657 C28.3062808,39.8817498 28.5374363,40.054087 28.7321109,40.2433569 C28.8286192,40.3385563 28.9158414,40.4375185 28.9891346,40.5391147 C29.0624277,40.6407109 29.1227868,40.7441885 29.1655688,40.8457846 C29.2100091,40.9470045 29.2358772,41.0459668 29.248148,41.1392847 C29.253786,41.1859437 29.2561075,41.2310976 29.2554442,41.2747463 C29.253786,41.3191476 29.2494746,41.3620438 29.2421785,41.4045636 C29.2345507,41.4467072 29.2239381,41.4873457 29.2106723,41.5283605 C29.1967433,41.5686227 29.1811561,41.6085086 29.1619208,41.6465131 C29.1426854,41.6845176 29.1204653,41.7206407 29.0969187,41.7522484 L29.0617645,41.7932631 L29.0571215,41.7962734 L30.7362319,43 L30.7700595,42.9247436 L30.7932746,42.865291 C30.8072036,42.8284153 30.8194744,42.7926685 30.8307503,42.757298 C30.8529704,42.6876858 30.8725373,42.619955 30.8894511,42.5522242 C30.9236104,42.4171389 30.9488153,42.2828062 30.967719,42.1465921 C30.9856277,42.0111305 30.9969036,41.8741638 30.9992251,41.7364445 C31.0022099,41.5991015 30.996572,41.4613823 30.9823113,41.3247918" id="Fill-42" fill="#FFFFFE"/>
                <path d="M34.1440716,42 L33.0674953,42 C32.165969,42 31.264829,42 30.3633026,42 C29.9092548,42 29.4552071,42 29.0007728,42 C28.5463386,42 28.0919044,42 27.6378566,42 C26.7432859,42 25.8491016,42 24.9545308,42 L23.0208669,42 L23.0208669,42.1913496 L23,42.2775801 C23,42.3186422 23.0208669,42.3584725 23.0208669,42.395839 L23.0208669,42.4106214 L23.4725961,42.4106214 L23.5386746,42.4274569 C23.8323565,42.4274569 23.9962002,42.7547221 24.1214014,43.016288 C24.1318349,43.254859 24.2728795,43.4753627 24.5677207,43.6642486 C25.2787403,44.1504243 27.0010305,45 29.0112063,45 C31.0209957,45 32.7432859,44.1532987 33.4546918,43.6671229 C33.767695,43.466329 33.9075803,43.2343279 33.9013976,42.9785108 C34.0242803,42.7263893 34.1854189,42.4266356 34.4628711,42.4266356 L34.5289496,42.4106214 L35,42.4106214 L35,42 L34.1440716,42" id="Fill-43" fill="#FFFFFE"/>
                <path d="M36.0450332,16 C36.0302413,16 36.0151206,16 36,16 L36.0900664,16 C36.0752745,16 36.0601538,16 36.0450332,16 M40.9996713,11.0698379 L40.9996713,11 C40.9996713,11.0115298 41,11.0230597 41,11.034919 C41,11.0464488 40.9996713,11.0579787 40.9996713,11.0698379" id="Fill-44" fill="#FFFFFE"/>
                <path d="M35.5498093,16 L35.4498258,16 C32.4357273,15.9729972 30,13.5204843 30,10.5001825 C30,7.46236523 32.4627301,5 35.4998175,5 C38.5248632,5 40.9792005,7.44156577 41,10.4615027 L41,10.5388622 C40.9792005,13.5412838 38.551866,15.9729972 35.5498093,16 M32.3050921,12.0090562 C32.9152098,13.1486482 34.1168353,13.924067 35.4998175,13.924067 C36.8831647,13.924067 38.0847902,13.1486482 38.6952728,12.0090562 L32.3050921,12.0090562 M37.6158899,9.35438713 C37.6199038,9.35438713 37.6242826,9.35438713 37.6282966,9.35438713 C38.0187427,9.35803616 38.3894842,9.4240836 38.901443,9.56967988 L38.9777077,9.49378006 C38.8065683,8.95080445 38.2234533,8.60268701 37.6421629,8.59210483 C37.626837,8.59173992 37.611511,8.59137502 37.5958202,8.59137502 C37.3192238,8.59137502 37.0415326,8.66581523 36.8076298,8.809587 C36.5631448,8.96029192 36.3595289,9.18616686 36.2843589,9.46057389 L36.3587991,9.53866313 C36.6259081,9.47006137 36.8349975,9.42298889 37.0411677,9.39416155 C37.2400398,9.36642893 37.427235,9.35438713 37.6158899,9.35438713 M33.354553,9.35438713 C33.3585669,9.35438713 33.3629458,9.35438713 33.3669597,9.35438713 C33.7577708,9.35803616 34.1285122,9.4240836 34.640836,9.56967988 L34.7171007,9.49378006 C34.5455963,8.95080445 33.9621164,8.60268701 33.3811909,8.59210483 C33.365865,8.59173992 33.3505391,8.59137502 33.3352131,8.59137502 C33.0582518,8.59137502 32.7801957,8.66581523 32.5466578,8.809587 C32.3018079,8.96029192 32.0989219,9.18616686 32.023387,9.46057389 L32.0974623,9.53866313 C32.3645712,9.47042627 32.5740255,9.42298889 32.7798308,9.39416155 C32.9790678,9.36642893 33.1658982,9.35438713 33.354553,9.35438713" id="Fill-45" fill="#FFFFFE"/>
                <path d="M39.9150522,10 C39.3448042,9.85117493 38.9318521,9.78366281 38.4969516,9.77993286 C38.4924807,9.77993286 38.4876033,9.77993286 38.4831324,9.77993286 C38.2729982,9.77993286 38.0644899,9.7922417 37.8429752,9.82058933 C37.6133315,9.85005595 37.3804363,9.89817232 37.0829156,9.96829541 L37,9.88847445 C37.0837285,9.6079821 37.310527,9.3770981 37.5828479,9.2230511 C37.8433817,9.07609101 38.1526893,9 38.4607777,9 C38.478255,9 38.4953258,9.000373 38.5123967,9.00074599 C39.1598699,9.01156285 39.8093754,9.36740022 40,9.92241701 L39.9150522,10" id="Fill-46" fill="#CB2D69"/>
                <path d="M35.9150637,10 C35.3444866,9.85117493 34.9315904,9.78366281 34.4963425,9.77993286 C34.4918721,9.77993286 34.4869954,9.77993286 34.4825251,9.77993286 C34.2724194,9.77993286 34.0643457,9.7922417 33.8424546,9.82058933 C33.6132484,9.85005595 33.3799783,9.89854532 33.082498,9.96829541 L33,9.88847445 C33.0841235,9.6079821 33.3100786,9.3770981 33.5827689,9.2230511 C33.842861,9.07609101 34.1525332,9 34.4609862,9 C34.4780547,9 34.4951233,9.000373 34.5121918,9.00074599 C35.159171,9.01156285 35.8089949,9.36740022 36,9.92241701 L35.9150637,10" id="Fill-47" fill="#CB2D69"/>
                <path d="M35.9996574,14 C34.7011192,14 33.5728643,13.1901677 33,12 L39,12 C38.4267931,13.1901677 37.2985381,14 35.9996574,14" id="Fill-48" fill="#CB2D69"/>
                <path d="M88.9972785,9.87114726 C89.0086811,9.95205479 88.9841991,10.0282534 88.9248385,10.098887 C88.8648072,10.1703767 88.7987393,10.213613 88.7256286,10.2298801 L85.2974734,11 L85,8.83989726 L85.7576015,8.66952055 L85.93736,9.9734589 L86.6533755,9.8125 L86.4739524,8.50898973 L87.2402736,8.3364726 L87.4196967,9.63998288 L88.1440965,9.47731164 L87.964338,8.17380137 L88.7397141,8 L88.9972785,9.87114726" id="Fill-49" fill="#CB2D69"/>
                <path d="M77.975994,12 C78.252063,12 78.492123,11.8998309 78.6954239,11.6986475 C78.8983496,11.4983094 79,11.2612003 79,10.9881657 C79,10.7147084 78.9024756,10.4814032 78.7074269,10.2890955 C78.512003,10.0963652 78.268192,10 77.975994,10 C77.3252063,10 77,10.3216399 77,10.9636517 C77,11.6546915 77.3252063,12 77.975994,12" id="Fill-50" fill="#CB2D69"/>
                <path d="M80.3045761,11.6986475 C80.5075019,11.8998309 80.7475619,12 81.024006,12 C81.6747937,12 82,11.6546915 82,10.9636517 C82,10.3216399 81.6747937,10 81.024006,10 C80.3413353,10 80,10.3292477 80,10.9881657 C80,11.2612003 80.1012753,11.4983094 80.3045761,11.6986475" id="Fill-51" fill="#CB2D69"/>
                <path d="M104.820112,15.9947186 L97.553818,15.9947186 L97.553818,14.5377891 L103.871134,14.5377891 C104.112011,14.5377891 104.261697,14.6437807 104.52619,14.7752686 C104.791047,14.9071207 104.820112,15.1099982 104.820112,15.3037698 L104.820112,15.9947186 Z M106.464837,13.1067201 C106.120778,12.9202331 105.77018,12.7166272 105.4501,12.7166272 L99.4390579,12.7166272 C99.1665719,12.7166272 98.768379,12.9096704 98.4003412,13.0753961 C98.0312135,13.2418503 97.9171327,13.5317793 97.553818,13.7251867 L97.553818,12.5621927 L95.7372445,13.7251867 L95.7372445,15.9947186 L91.4900957,15.9947186 C90.8840868,15.2662539 90.2780779,14.415407 89.672069,13.615917 C88.7470698,12.4867966 88.0295233,11.930978 87.5030803,11.930978 C86.9610148,11.930978 86.6543772,12.1542524 86.2910625,12.5833182 L86.2910625,14.3068658 C86.6543772,14.0857767 87.0325877,13.9746858 87.2407671,13.9746858 C87.6549458,13.9746858 88.0734843,14.2169004 88.5040123,14.7377527 C88.8226392,15.1631761 89.1300035,15.6304863 89.4333712,15.9947186 L82.2946008,15.9947186 L82.2946008,13.0196685 C81.2046567,13.651976 80.7853916,13.998361 80.7065523,14.0945183 C80.5336145,14.3145147 80.5357944,14.9020215 80.5357944,15.9947186 L75.5696458,15.9947186 L74.195953,16.028228 L74.1356428,16.0442542 C73.7923104,16.0307776 73.6208258,15.9073029 73.6208258,15.6548898 L73.5815878,7 L71.7584747,8.6827536 L71.7584747,15.9947186 L64.8079013,15.9947186 C63.788077,15.9947186 63.1206679,15.949918 62.8064007,15.7896558 C62.2461694,15.4902568 61.9664171,14.9548352 61.9664171,14.1495174 C61.9664171,13.8096886 62.0121947,13.4217811 62.1041134,12.9690402 L62.1506176,12.7541431 C61.8817648,13.1067201 61.6939311,13.4086687 61.5863899,13.6548898 C61.1954633,14.4740484 61,15.2243671 61,15.9036605 C61,16.4234201 61.1762076,16.8816245 61.5289862,17.2779093 C61.8817648,17.6741941 62.3075696,17.810417 62.8064007,17.8639592 C63.0592677,17.8905482 63.4160427,17.8158805 63.8763624,17.8158805 L71.3657315,17.8158805 L71.7915363,17.3146968 C71.883455,17.6009834 72.0483998,17.733564 72.2860076,17.8002185 C72.4240672,17.8399199 72.5890121,17.8158805 72.7812056,17.8158805 L90.9876315,17.8158805 L91.7407829,19 L91.7407829,17.8158805 L106.22287,17.8158805 C106.716615,17.8158805 107,17.5255873 107,17.2764524 L107,13.9120379 C107,13.6352213 106.809623,13.2939355 106.464837,13.1067201 Z" id="Fill-52" fill="#CB2D69"/>
                <path d="M66.0448182,12.7675849 C65.6324471,13.0999376 65.3620184,13.5110992 65.2335323,14 C66.0769398,13.334938 67.1629951,12.9369707 68.4912642,12.8064545 L69,11.877864 C68.5511666,12.0012481 68.1657081,12.0636534 67.8453608,12.0636534 C67.0210526,12.0636534 66.3378188,11.8839262 65.7969615,11.5255416 C66.2275638,11.1343496 66.8009767,10.9385754 67.5154639,10.9385754 C67.6986435,10.9385754 67.9048291,10.9649639 68.1340206,11.0170277 C68.3723277,10.7499331 68.4912642,10.5249175 68.4912642,10.3423375 C68.4912642,10.1137559 68.2486164,10 67.7628866,10 C66.9932718,10 66.3742811,10.1989837 65.9072165,10.5965945 C65.3029843,11.1051083 65,11.532317 65,11.877864 C65,12.3599893 65.3481281,12.6566818 66.0448182,12.7675849" id="Fill-53" fill="#CB2D69"/>
            </g>
        </g>
    </g>
</svg>