<?xml version="1.0" ?><svg data-name="01-Virus" id="_01-Virus" viewBox="0 0 64 64" xmlns="http://www.w3.org/2000/svg"><title/><circle cx="37" cy="41" r="2" style="fill:#107c82"/><circle cx="25" cy="35" r="4" style="fill:#107c82"/><circle cx="30" cy="23" r="2" style="fill:#107c82"/><path d="M61,30a2,2,0,0,1,0,4H58a26.086,26.086,0,0,0-7.32,1.4,18.748,18.748,0,0,1-2.39,6.34,28.829,28.829,0,0,0,4.86,7.44L54.98,51H55a3,3,0,1,1-3,3v-.02l-1.82-1.83a28.5,28.5,0,0,0-7.14-4.72,18.85,18.85,0,0,1-7.64,3.25A26.086,26.086,0,0,0,34,58v3a2,2,0,0,1-4,0V58a26.086,26.086,0,0,0-1.4-7.32,18.85,18.85,0,0,1-7.64-3.25,28.5,28.5,0,0,0-7.14,4.72L12,53.98V54a3,3,0,1,1-3-3h.02l1.83-1.82a28.829,28.829,0,0,0,4.86-7.44,18.748,18.748,0,0,1-2.39-6.34A26.086,26.086,0,0,0,6,34H3a2,2,0,0,1,0-4H6a26.086,26.086,0,0,0,7.32-1.4,18.748,18.748,0,0,1,2.39-6.34,28.829,28.829,0,0,0-4.86-7.44L9.02,13H9a3,3,0,1,1,3-3v.02l1.82,1.83a28.5,28.5,0,0,0,7.14,4.72,18.85,18.85,0,0,1,7.64-3.25A26.086,26.086,0,0,0,30,6V3a2,2,0,0,1,4,0V6a26.086,26.086,0,0,0,1.4,7.32,18.85,18.85,0,0,1,7.64,3.25,28.5,28.5,0,0,0,7.14-4.72L52,10.02V10a3,3,0,1,1,3,3h-.02l-1.83,1.82a28.829,28.829,0,0,0-4.86,7.44,18.748,18.748,0,0,1,2.39,6.34A26.086,26.086,0,0,0,58,30ZM44,29a3,3,0,1,0-3,3A3,3,0,0,0,44,29ZM39,41a2,2,0,1,0-2,2A2.006,2.006,0,0,0,39,41ZM32,23a2,2,0,1,0-2,2A2.006,2.006,0,0,0,32,23ZM29,35a4,4,0,1,0-4,4A4,4,0,0,0,29,35Z" style="fill:#34c1ad"/><circle cx="41" cy="29" r="3" style="fill:#107c82"/><path d="M32,16A16,16,0,1,0,48,32,16,16,0,0,0,32,16ZM25,39a4,4,0,1,1,4-4A4,4,0,0,1,25,39Zm5-14a2,2,0,1,1,2-2A2.006,2.006,0,0,1,30,25Zm7,18a2,2,0,1,1,2-2A2.006,2.006,0,0,1,37,43Zm4-11a3,3,0,1,1,3-3A3,3,0,0,1,41,32Z" style="fill:#21abab"/><circle cx="42" cy="37" r="2" style="fill:#13969d"/><circle cx="22" cy="26" r="2" style="fill:#13969d"/><circle cx="36" cy="22" r="2" style="fill:#13969d"/><circle cx="33" cy="31" r="1" style="fill:#13969d"/><circle cx="30" cy="43" r="1" style="fill:#13969d"/><path d="M44,29a3,3,0,1,1-.767-2" style="fill:none;stroke:#000;stroke-linejoin:round;stroke-width:2px"/><circle cx="37" cy="41" r="2" style="fill:none;stroke:#000;stroke-linejoin:round;stroke-width:2px"/><circle cx="30" cy="23" r="2" style="fill:none;stroke:#000;stroke-linejoin:round;stroke-width:2px"/><path d="M21.535,33A4,4,0,1,1,21,35" style="fill:none;stroke:#000;stroke-linejoin:round;stroke-width:2px"/><path d="M48,50.337a17.719,17.719,0,0,1,2.175,1.816L52,53.977,52,54a3,3,0,1,0,3-3l-.023,0-1.824-1.823a29.121,29.121,0,0,1-4.867-7.44,18.861,18.861,0,0,0,2.393-6.334A25.741,25.741,0,0,1,58,34h3a2,2,0,0,0,0-4H58A25.741,25.741,0,0,1,50.679,28.6a18.861,18.861,0,0,0-2.393-6.334,29.121,29.121,0,0,1,4.867-7.44L54.977,13,55,13a3,3,0,1,0-3-3l0,.023-1.823,1.824a28.447,28.447,0,0,1-7.135,4.72,18.885,18.885,0,0,0-7.639-3.246A25.741,25.741,0,0,1,34,6V3a2,2,0,0,0-4,0V6A25.741,25.741,0,0,1,28.6,13.321a18.885,18.885,0,0,0-7.639,3.246A35.1,35.1,0,0,1,16,13.662" style="fill:none;stroke:#000;stroke-linejoin:round;stroke-width:2px"/><path d="M14,12.022c-.061-.058-.12-.117-.179-.175L12,10.023,12,10a3,3,0,1,0-3,3l.023,0,1.824,1.823a29.121,29.121,0,0,1,4.867,7.44A18.861,18.861,0,0,0,13.321,28.6,25.741,25.741,0,0,1,6,30H3a2,2,0,0,0,0,4H6a25.741,25.741,0,0,1,7.321,1.405,18.861,18.861,0,0,0,2.393,6.334,29.121,29.121,0,0,1-4.867,7.44L9.023,51,9,51a3,3,0,1,0,3,3l0-.023,1.823-1.824a28.447,28.447,0,0,1,7.135-4.72A18.885,18.885,0,0,0,28.6,50.679,25.741,25.741,0,0,1,30,58v3a2,2,0,0,0,4,0V58a25.741,25.741,0,0,1,1.405-7.321,18.885,18.885,0,0,0,7.639-3.246c.744.361,1.813.909,2.961,1.6" style="fill:none;stroke:#000;stroke-linejoin:round;stroke-width:2px"/></svg>